<?xml version="1.0" encoding="UTF-8"?>
<!DOCTYPE svg PUBLIC "-//W3C//DTD SVG 1.1//EN" "http://www.w3.org/Graphics/SVG/1.1/DTD/svg11.dtd">
<!-- Creator: CorelDRAW 2020 (64-Bit) -->
<svg xmlns="http://www.w3.org/2000/svg" xml:space="preserve" width="10.6667in" height="6.66666in" version="1.1" style="shape-rendering:geometricPrecision; text-rendering:geometricPrecision; image-rendering:optimizeQuality; fill-rule:evenodd; clip-rule:evenodd"
viewBox="0 0 1067 667"
 xmlns:xlink="http://www.w3.org/1999/xlink"
 xmlns:xodm="http://www.corel.com/coreldraw/odm/2003">
 <defs>
  <style type="text/css">
   <![CDATA[
    .fil8 {fill:#13375B;fill-rule:nonzero}
    .fil0 {fill:#184655;fill-rule:nonzero}
    .fil4 {fill:#1A6EFD;fill-rule:nonzero}
    .fil3 {fill:#312DA7;fill-rule:nonzero}
    .fil13 {fill:#3C8F7C;fill-rule:nonzero}
    .fil14 {fill:#50BFA5;fill-rule:nonzero}
    .fil6 {fill:#86B1F2;fill-rule:nonzero}
    .fil10 {fill:#96D9C9;fill-rule:nonzero}
    .fil5 {fill:#9BC1F9;fill-rule:nonzero}
    .fil2 {fill:#B75742;fill-rule:nonzero}
    .fil11 {fill:#F48C7F;fill-rule:nonzero}
    .fil12 {fill:#F7A491;fill-rule:nonzero}
    .fil1 {fill:#F7CC7F;fill-rule:nonzero}
    .fil9 {fill:#FAE0B2;fill-rule:nonzero}
    .fil7 {fill:#FFC33D;fill-rule:nonzero}
   ]]>
  </style>
 </defs>
 <g id="Layer_x0020_1">
  <metadata id="CorelCorpID_0Corel-Layer"/>
  <path class="fil0" d="M387 179c-1,0 -2,-1 -2,-1 -1,-1 0,-3 1,-3l92 -42c1,-1 3,0 3,1 1,1 0,3 -1,3l-92 42c0,0 -1,0 -1,0z"/>
  <path class="fil0" d="M380 344c0,0 0,0 0,0 -1,0 -2,-1 -2,-3l25 -193c0,-1 1,-2 3,-2 1,0 2,1 2,3l-25 193c0,1 -1,2 -3,2z"/>
  <path class="fil1" d="M513 148c-8,-20 -26,-31 -39,-25 -13,6 -17,26 -9,46 2,5 5,9 8,13l45 -19c-1,-5 -2,-10 -4,-14z"/>
  <path class="fil0" d="M412 169c0,6 -5,10 -10,10 -6,0 -10,-5 -10,-10 0,-6 5,-10 10,-10 6,0 10,5 10,10z"/>
  <path class="fil2" d="M724 347c-17,-2 -35,-7 -35,-7 0,0 -3,-34 -3,-35 -1,-17 -3,-29 8,-42 5,-6 30,-2 34,19 4,19 0,47 -3,64l0 1 -1 0z"/>
  <path class="fil3" d="M255 562c0,0 -87,-63 -100,-90 -12,-27 12,-25 12,-25 0,0 -36,-48 -27,-65 9,-16 24,-8 24,-8 0,0 -13,-54 1,-58 26,-7 49,64 49,64 0,0 3,-28 14,-26 25,5 13,70 13,70 0,0 7,-24 21,-14 25,19 -7,152 -7,152z"/>
  <path class="fil4" d="M265 407c-13,-9 -22,5 -22,5 0,0 10,-51 -14,-57 -13,-3 -14,26 -14,26 0,0 -23,-71 -49,-64l90 244c3,-15 30,-140 9,-154z"/>
  <path class="fil5" d="M231 543c0,0 -90,0 -102,-1 -13,-1 1,-13 1,-13 0,0 -28,1 -32,-6 -4,-7 7,-9 7,-9 0,0 -28,-8 -27,-14 2,-11 33,-4 33,-4 0,0 -11,-6 -7,-11 7,-8 37,13 37,13 0,0 -9,-18 -5,-24 18,-21 94,68 94,68z"/>
  <path class="fil6" d="M254 564c0,0 86,-17 105,-33 19,-16 -4,-17 -4,-17 0,0 51,-19 50,-35 -1,-16 -23,-17 -23,-17 0,0 30,-27 24,-41 -10,-20 -53,18 -53,18 0,0 1,-34 -12,-37 -20,-5 -38,58 -38,58 0,0 -3,-15 -17,-12 -25,5 -32,115 -32,115z"/>
  <path class="fil7" d="M206 644l121 0c15,-17 17,-43 17,-69 0,-13 5,-23 1,-35l-156 2c-4,12 -7,24 -6,38 0,25 9,48 24,64z"/>
  <path class="fil8" d="M948 641l-841 0c-3,0 -5,2 -5,5l0 0c0,3 2,5 5,5l841 0c3,0 5,-2 5,-5 0,-3 -2,-5 -5,-5z"/>
  <path class="fil1" d="M624 70c18,-6 34,14 25,30 -2,3 -2,6 -1,10l3 11c1,3 -1,6 -4,7l-7 2c-3,1 -6,-1 -8,-4 -4,-11 -5,-15 -11,-18 -17,-9 -15,-34 3,-39z"/>
  <path class="fil9" d="M619 89c-1,1 -1,2 0,3 1,1 3,1 5,1 -1,-2 -1,-3 -2,-4 -1,-1 -3,0 -3,0zm18 -2c-1,1 0,3 0,5 2,-1 3,-2 4,-3 1,-2 -2,-5 -4,-1zm7 29c-3,-9 -6,-19 -7,-23 -3,1 -7,2 -10,2 3,7 6,15 8,22l-1 0c-3,-7 -6,-15 -9,-22 -2,0 -5,0 -6,-2 -1,-1 -1,-2 -1,-3 0,-3 3,-3 5,-2 1,1 2,3 3,5 4,0 7,-1 10,-2 0,-2 -1,-4 0,-6 2,-6 11,2 1,6 1,3 4,13 7,23l-1 0z"/>
  <path class="fil10" d="M647 110c0,0 0,0 0,0l3 11c1,3 -1,6 -4,7l-7 2c-3,1 -6,-1 -8,-4 -2,-5 -3,-8 -4,-11l20 -6z"/>
  <path class="fil9" d="M632 56l0 -12c0,-1 -1,-2 -2,-2 -1,0 -2,1 -2,2l0 12c0,1 1,2 2,2 1,0 2,-1 2,-2z"/>
  <path class="fil9" d="M654 73l10 -6c1,-1 1,-2 1,-3 -1,-1 -2,-1 -3,-1l-10 6c-1,1 -1,2 -1,3 1,1 2,1 3,1z"/>
  <path class="fil9" d="M681 100c0,-1 0,-2 -1,-3 -4,-1 -8,-2 -12,-3 -1,0 -2,1 -2,2 0,1 1,2 2,2 4,0 8,1 11,3 1,0 2,0 3,-1z"/>
  <path class="fil9" d="M605 69c1,-1 1,-2 0,-3 -4,-4 -7,-8 -9,-13 -1,-1 -2,-1 -3,-1 -1,1 -1,2 -1,3 3,5 6,9 10,14 1,1 2,1 3,0z"/>
  <path class="fil9" d="M601 89c0,-1 -1,-2 -2,-2l-13 2c-1,0 -2,1 -2,2 0,1 1,2 2,2l13 -2c1,0 2,-1 2,-2z"/>
  <path class="fil9" d="M598 128c0,0 0,0 0,0 3,-3 6,-6 9,-10 1,-1 0,-2 0,-3 -1,-1 -2,0 -3,0 -2,3 -5,7 -8,9 -1,1 -1,2 0,3 1,1 2,1 2,0z"/>
  <polygon class="fil8" points="480,437 666,437 666,375 480,375 "/>
  <polygon class="fil9" points="403,611 542,611 542,372 403,372 "/>
  <polygon class="fil0" points="460,642 475,642 475,610 460,610 "/>
  <polygon class="fil0" points="382,642 396,642 396,611 382,611 "/>
  <path class="fil3" d="M860 641l15 0c-20,-13 -32,-48 -38,-71 -12,-44 -14,-88 -15,-88l-20 3c6,42 24,124 58,156z"/>
  <polygon class="fil3" points="326,611 553,611 553,372 326,372 "/>
  <polygon class="fil0" points="327,642 343,642 343,366 327,366 "/>
  <path class="fil2" d="M323 360l144 0c5,0 10,-5 10,-10l0 -6c0,-6 -4,-10 -10,-10l-144 0 0 0c7,7 7,19 0,26l0 0z"/>
  <path class="fil9" d="M326 336l80 0c6,0 10,5 10,10l0 0c0,6 -4,10 -10,10l-80 0c4,-6 4,-14 0,-21z"/>
  <path class="fil7" d="M365 314l120 0c4,0 7,3 7,7l0 6c0,4 -3,7 -7,7l-120 0 0 0c5,-5 5,-14 0,-19z"/>
  <path class="fil9" d="M367 317l64 0c4,0 7,3 7,7l0 0c0,4 -3,7 -7,7l-64 0c2,-4 2,-9 0,-13z"/>
  <path class="fil11" d="M707 269c-9,-11 -28,-4 -21,34 0,0 2,30 1,41 -9,-2 -26,-8 -38,-8 0,0 -15,-14 -21,-17 -4,-2 -16,-1 -16,-1 0,0 -17,9 -16,12 2,4 12,-7 17,-5 0,0 -12,7 -9,8 3,1 8,0 10,-1 2,0 11,7 18,11 1,1 4,3 9,6 5,3 11,8 18,11 19,8 40,18 48,13l0 0c8,-10 15,-83 0,-102z"/>
  <path class="fil8" d="M881 293l0 0c-10,-2 -20,4 -23,13l-38 137c-1,5 -6,8 -12,8l-116 0c-10,0 -18,8 -18,18l0 0c0,9 7,17 17,18l140 5c9,0 20,-13 22,-21l42 -156c3,-10 -4,-19 -14,-22z"/>
  <path class="fil8" d="M694 641l8 0c7,-47 8,-102 1,-172l-18 0c12,70 14,125 10,172z"/>
  <polygon class="fil0" points="650,642 670,642 670,364 650,364 "/>
  <path class="fil12" d="M612 584c-5,10 -18,41 -18,43 0,1 -2,3 -2,3 -16,2 -28,-7 -37,-16 8,1 21,-2 23,-2 5,-1 4,-16 7,-33 4,2 21,-2 27,3z"/>
  <path class="fil3" d="M594 627c-1,5 -7,15 -8,15 -1,0 -49,-17 -53,-24 -3,-4 11,-4 21,-4 9,9 37,15 40,14z"/>
  <path class="fil13" d="M766 450l-98 11 -53 136 -32 -6c0,0 18,-145 29,-157 29,-33 129,-29 129,-29l26 46z"/>
  <path class="fil12" d="M680 592c0,6 -2,14 -2,22 0,5 2,11 2,12 0,1 0,3 -1,4 -14,8 -28,5 -40,1 8,-3 13,-9 15,-11 3,-4 1,-15 -3,-31 5,0 20,0 28,3z"/>
  <path class="fil14" d="M754 390c0,0 -103,6 -129,44 -19,28 29,169 29,169l29 -5c0,0 -7,-95 -12,-127 -1,-5 -5,-21 -5,-21 0,0 110,11 128,2 18,-9 25,-35 18,-51 -8,-16 -59,-10 -59,-10z"/>
  <path class="fil3" d="M681 625c2,3 3,16 2,16 -1,0 -56,3 -63,-1 -4,-3 10,-6 20,-10 12,4 40,-2 41,-6z"/>
  <path class="fil7" d="M696 244c-9,2 -10,9 -10,9l-9 39c0,0 -1,17 1,23 4,12 11,17 23,21 16,6 23,20 30,28 12,14 2,31 2,31l32 10 48 -7c0,0 5,-8 -14,-55 -17,-41 -57,-109 -104,-100z"/>
  <path class="fil3" d="M722 641l7 0c10,-71 7,-149 -3,-219 -1,-8 5,-15 13,-15l111 -5 0 -8c0,0 -94,-6 -136,-8 -8,0 -14,7 -12,15 1,5 3,12 4,21 14,71 22,149 16,220z"/>
  <path class="fil12" d="M732 252c-10,-11 -29,-4 -21,34 0,0 0,37 -1,48 -11,-2 -33,-12 -48,-16 0,0 -15,-14 -21,-17 -5,-2 -19,-1 -19,-1 0,0 -20,9 -18,12 2,4 13,-7 20,-5 0,0 -14,7 -11,8 3,1 9,0 12,-1 3,0 10,8 18,12 1,1 7,2 13,5 6,3 66,45 71,36 15,-23 22,-96 4,-115z"/>
  <path class="fil2" d="M741 329c-17,-2 -35,-7 -35,-7 0,0 -3,-34 -3,-35 -1,-17 -3,-29 8,-42 5,-6 30,-2 34,19 4,19 0,47 -3,64l0 1 -1 0z"/>
  <path class="fil2" d="M689 179c1,-11 1,-54 27,-53 26,1 26,29 47,-5 20,-32 56,-11 52,15 4,0 7,2 11,4 11,8 14,23 6,35 -1,2 -1,4 -3,6 1,12 -4,25 -15,36 -31,32 -48,-11 -64,-12 -17,-1 -8,14 -24,21 -16,7 -27,2 -45,-29l-4 -9c0,0 10,2 12,-9z"/>
  <path class="fil2" d="M674 171c18,13 22,45 6,61 -11,10 -33,12 -44,2 -19,-16 -22,-35 -15,-49 9,-19 39,-24 54,-14z"/>
  <path class="fil12" d="M680 215c0,0 6,18 25,28 2,1 -28,50 -28,49 0,-4 5,-26 4,-28 -4,-7 -24,-41 -24,-41l22 -8z"/>
  <path class="fil7" d="M668 219l-11 4 0 0c0,0 9,15 16,27 3,-2 5,-5 7,-9 3,-7 3,-13 2,-20 -2,-3 -2,-5 -2,-5l-11 4z"/>
  <path class="fil12" d="M639 183c0,0 10,-4 20,0 11,4 30,30 20,52 -10,23 -33,11 -44,-3 -10,-14 -21,-36 4,-49z"/>
  <path class="fil2" d="M681 195c-8,-15 -18,-23 -31,-20 -13,3 -25,6 -25,21l-1 3c0,0 19,-9 27,-2 8,7 24,10 26,15 2,5 8,14 8,14l1 -6c0,0 4,-10 -4,-24z"/>
  <path class="fil12" d="M661 204c2,5 6,7 9,6 3,-1 4,-6 3,-11 -2,-5 -6,-7 -9,-6 -3,1 -4,6 -3,11z"/>
  <polygon class="fil0" points="549,642 568,642 568,366 549,366 "/>
  <path class="fil9" d="M445 221c0,0 13,5 19,19 7,19 -4,50 -1,58 3,9 19,18 19,18l35 -12c0,0 -12,-23 -12,-31 0,-8 -1,-45 -15,-52l-44 0z"/>
  <path class="fil8" d="M491 229l-28 0c0,0 -1,0 -1,-1 0,0 0,-1 1,-1l28 0c0,0 1,0 1,1 0,0 0,1 -1,1z"/>
  <path class="fil8" d="M496 235l-29 0c0,0 -1,0 -1,-1 0,0 0,-1 1,-1l29 0c0,0 1,0 1,1 0,0 0,1 -1,1z"/>
  <path class="fil8" d="M497 241l-20 0c0,0 -1,0 -1,-1 0,0 0,-1 1,-1l20 0c0,0 1,0 1,1 0,0 0,1 -1,1z"/>
  <polygon class="fil8" points="465,359 496,359 496,352 465,352 "/>
  <polygon class="fil8" points="571,359 604,359 604,350 571,350 "/>
  <polygon class="fil8" points="465,298 454,298 454,280 464,280 "/>
  <path class="fil4" d="M472 269c0,8 -6,14 -14,14 -8,0 -14,-6 -14,-14 0,-8 6,-14 14,-14 8,0 14,6 14,14z"/>
  <path class="fil8" d="M466 269c0,4 -3,7 -7,7 -4,0 -7,-3 -7,-7 0,-4 3,-7 7,-7 4,0 7,3 7,7z"/>
  <path class="fil8" d="M484 252c0,3 -2,5 -5,5 -3,0 -5,-2 -5,-5 0,-3 2,-5 5,-5 3,0 5,2 5,5z"/>
  <path class="fil8" d="M464 298l-3 -4c0,0 15,-11 18,-20 3,-9 -1,-18 -1,-18l4 -2c0,0 5,11 1,21 -3,10 -19,21 -19,22z"/>
  <path class="fil8" d="M519 252c0,3 -2,5 -5,5 -3,0 -5,-2 -5,-5 0,-3 2,-5 5,-5 3,0 5,2 5,5z"/>
  <path class="fil8" d="M499 298l-3 -4c0,0 15,-11 18,-20 3,-9 -1,-18 -1,-18l4 -2c0,0 5,11 1,21 -3,10 -19,21 -19,22z"/>
  <polygon class="fil8" points="479,253 512,253 512,250 479,250 "/>
  <path class="fil4" d="M534 270c0,7 -5,12 -11,12 -6,0 -11,-6 -11,-12 0,-7 5,-12 11,-12 6,0 11,6 11,12z"/>
  <polygon class="fil4" points="497,283 523,283 523,258 497,258 "/>
  <path class="fil8" d="M510 271c0,7 -6,12 -13,12 -7,0 -13,-6 -13,-12 0,-7 6,-12 13,-12 7,0 13,6 13,12z"/>
  <path class="fil8" d="M585 315c0,1 -3,3 -6,3 -3,0 -6,-1 -6,-3 0,-1 3,-3 6,-3 3,0 6,1 6,3z"/>
  <path class="fil8" d="M597 321c0,1 -2,2 -5,2 -3,0 -5,-1 -5,-2 0,-1 2,-2 5,-2 3,0 5,1 5,2z"/>
  <path class="fil8" d="M612 321c0,1 -2,2 -5,2 -3,0 -5,-1 -5,-2 0,-1 2,-2 5,-2 3,0 5,1 5,2z"/>
  <path class="fil8" d="M605 315c0,1 -2,2 -5,2 -3,0 -5,-1 -5,-2 0,-1 2,-2 5,-2 3,0 5,1 5,2z"/>
  <polygon class="fil8" points="591,340 594,340 594,322 591,322 "/>
  <path class="fil8" d="M591 326c0,1 -2,2 -5,2 -3,0 -5,-1 -5,-2 0,-1 2,-2 5,-2 3,0 5,1 5,2z"/>
  <polygon class="fil8" points="585,345 587,345 587,327 585,327 "/>
  <polygon class="fil8" points="578,334 581,334 581,316 578,316 "/>
  <polygon class="fil8" points="607,340 609,340 609,322 607,322 "/>
  <polygon class="fil8" points="599,336 601,336 601,317 599,317 "/>
  <path class="fil8" d="M616 333l0 21 -170 0 0 -56 26 0 10 -18 63 0 6 0c-3,36 32,63 65,54z"/>
  <path class="fil4" d="M616 333l0 6c-38,9 -74,-21 -71,-60l6 0c-3,36 32,63 65,54z"/>
  <path class="fil4" d="M574 345l-120 0 0 -41c0,-1 0,-1 -1,-1 -1,0 -1,0 -1,1l0 42c0,1 0,1 1,1l121 0c1,0 1,0 1,-1 0,-1 0,-1 -1,-1z"/>
  <path class="fil0" d="M285 376l408 0c4,0 7,-3 7,-7l0 -2c0,-4 -3,-7 -7,-7l-408 0c-4,0 -7,3 -7,7l0 2c0,4 3,7 7,7z"/>
  <polygon class="fil2" points="341,332 333,333 326,266 328,253 334,265 "/>
  <path class="fil1" d="M334 266l0 0 -4 -8 -2 0 -2 9c2,0 5,0 8,0z"/>
  <path class="fil8" d="M342 335l-8 -1 7 -59c0,-2 2,-7 4,-7l0 0c2,0 2,5 2,7l-6 60z"/>
  <path class="fil8" d="M346 274c0,0 0,0 0,0 0,0 0,0 0,-1l1 -8c0,0 0,0 1,0 0,0 0,0 0,1l-1 8c0,0 0,0 0,0z"/>
  <path class="fil14" d="M346 359l-22 0c-4,0 -7,-3 -7,-6l0 -49 35 0 0 49c0,4 -3,6 -7,6z"/>
  <path class="fil10" d="M338 353l0 -49 -21 0 0 49c0,4 3,6 7,6l8 0c4,0 7,-3 7,-6z"/>
  <path class="fil10" d="M600 284l-1 -5c0,-1 0,-3 0,-4l0 0c-1,1 -1,3 -2,4l-2 4 5 1zm-6 3l-2 3c0,1 -1,1 -3,1l0 0c-2,0 -2,-2 -2,-3l9 -17 6 1 3 19c0,2 -1,3 -3,3l0 0c-1,0 -2,-1 -2,-2l0 -4 -6 -1z"/>
  <path class="fil9" d="M571 268c1,0 1,-1 2,-1 3,-1 4,-3 3,-6 -1,-3 -4,-2 -7,-1l-2 1 3 7zm-5 -11l2 -1c3,-1 4,-3 3,-5 -1,-2 -3,-2 -5,-1 -1,1 -2,1 -2,1l3 6zm-10 -7c1,-1 4,-3 7,-4 3,-2 6,-2 8,-2 2,0 4,1 5,3 1,2 1,5 -2,7l0 0c3,-1 6,1 8,4 1,2 1,5 0,6 -1,2 -4,5 -9,7 -3,1 -5,2 -6,3l-12 -24z"/>
  <path class="fil9" d="M603 232c0,1 0,3 -2,3 -1,0 -3,1 -5,1 -10,1 -16,-4 -18,-13 -1,-10 5,-17 14,-18 2,0 3,0 5,0 2,0 3,2 2,3l0 0c0,1 -1,3 -3,2 -1,0 -2,0 -3,0 -5,1 -9,4 -8,11 1,6 5,9 11,8 1,0 2,0 3,-1 1,0 3,0 3,2l0 0z"/>
  <path class="fil10" d="M552 197c1,0 2,0 3,-1 7,-2 11,-8 8,-17 -2,-8 -8,-10 -15,-8 -2,1 -3,1 -4,2l8 24zm-18 -27c3,-1 7,-3 11,-4 7,-2 12,-3 16,-1 5,2 9,5 11,12 2,7 1,13 -1,17 -3,4 -8,8 -15,10 -4,1 -7,2 -10,3l-12 -36z"/>
  <path class="fil9" d="M951 504c0,2 -1,4 -3,4 -2,0 -4,-1 -4,-3 0,-2 1,-4 3,-4 2,0 4,1 4,3z"/>
  <path class="fil7" d="M945 507c1,2 5,1 4,-2 0,-1 -1,-2 -3,-2 -2,0 -3,2 -2,4l0 0z"/>
  <path class="fil9" d="M970 510c-1,2 -1,4 0,5 2,1 4,1 5,0 1,-2 1,-4 0,-5 -2,-1 -4,-1 -5,0z"/>
  <path class="fil7" d="M970 515c1,1 3,1 3,0 1,-1 1,-2 0,-3 0,0 0,0 0,-1 0,0 -1,-1 -2,-1 -2,0 -3,3 -1,4z"/>
  <path class="fil9" d="M953 504c0,2 2,4 4,4 2,0 4,-2 4,-4 0,-2 -2,-4 -4,-4 -2,0 -4,2 -4,4z"/>
  <path class="fil7" d="M956 508c2,0 3,-2 2,-4 -1,-2 -4,-1 -4,1 0,1 1,2 2,2z"/>
  <path class="fil9" d="M936 511c1,2 4,2 5,0 2,-1 2,-4 0,-5 -1,-2 -4,-2 -5,0 -2,1 -2,4 0,5z"/>
  <path class="fil7" d="M937 511c1,1 2,1 3,0 1,-1 1,-2 0,-3 -1,-1 -2,-1 -3,0 -1,1 -1,2 0,3z"/>
  <path class="fil9" d="M964 554c-1,-2 0,-4 2,-5 2,-1 4,0 5,2 1,2 0,4 -2,5 -2,1 -4,0 -5,-2z"/>
  <path class="fil7" d="M965 553c1,1 2,1 3,1 1,-1 2,-2 1,-4 -1,-1 -2,-1 -3,-1 -1,1 -2,2 -1,4l0 0z"/>
  <path class="fil9" d="M977 541c-2,-1 -3,-3 -2,-5 1,-2 3,-3 5,-2 2,1 3,3 2,5 -1,2 -3,3 -5,2z"/>
  <path class="fil7" d="M976 539c1,2 3,1 4,0 1,-1 0,-3 -1,-3 -2,-1 -4,2 -3,4l0 0z"/>
  <path class="fil9" d="M978 524c-2,1 -4,-1 -5,-3 -1,-2 1,-4 3,-5 2,-1 4,1 5,3 1,2 -1,4 -3,5z"/>
  <path class="fil7" d="M979 521c0,-1 0,-1 0,-2 -1,-2 -3,-2 -4,0 0,1 0,1 0,2 1,2 3,2 4,0z"/>
  <path class="fil9" d="M976 543c-2,-1 -4,0 -5,1 -1,2 0,4 1,5 2,1 4,0 5,-1 1,-2 0,-4 -1,-5z"/>
  <path class="fil7" d="M974 548c2,-1 2,-3 1,-4 -1,-1 -3,0 -3,1 -1,2 1,4 3,4z"/>
  <path class="fil9" d="M968 509c-1,2 -3,2 -5,1 -2,-1 -2,-3 -1,-5 1,-2 3,-2 5,-1 2,1 2,3 1,5z"/>
  <path class="fil7" d="M963 510c1,1 3,0 3,-1 1,-1 0,-3 -1,-3 -1,-1 -3,0 -3,1 -1,1 -1,2 0,3 0,0 0,0 1,1z"/>
  <path class="fil9" d="M979 525c-2,0 -3,2 -3,4 0,2 2,3 4,3 2,0 3,-2 3,-4 0,-2 -2,-3 -4,-3z"/>
  <path class="fil7" d="M979 532c2,0 3,-2 2,-4 -1,-1 -1,-1 -2,-1 -1,0 -2,1 -2,3 0,1 1,2 3,2z"/>
  <polygon class="fil7" points="941,511 941,512 965,550 966,549 955,532 971,544 972,544 955,531 975,537 975,537 956,531 976,530 976,529 955,530 974,522 974,521 955,529 970,515 969,515 954,529 964,510 963,510 954,528 956,508 956,508 953,529 948,508 948,509 952,528 "/>
  <polygon class="fil7" points="875,580 876,583 956,531 954,528 "/>
  <path class="fil9" d="M913 409c2,3 1,7 -1,9 -3,2 -7,1 -9,-1 -2,-3 -1,-7 1,-9 3,-2 7,-1 9,1z"/>
  <path class="fil7" d="M906 417c4,2 8,-3 5,-6 -1,-2 -4,-2 -6,-1 -2,2 -2,6 0,7l0 0z"/>
  <path class="fil9" d="M945 402c-1,3 2,7 5,7 3,1 7,-2 7,-5 1,-3 -2,-7 -5,-7 -3,-1 -7,2 -7,5z"/>
  <path class="fil7" d="M950 408c2,0 4,-1 5,-3 0,-2 -1,-4 -2,-4 0,0 -1,0 -1,0 -1,0 -2,0 -3,1 -3,2 -2,7 1,7z"/>
  <path class="fil9" d="M915 407c2,3 6,4 9,3 3,-2 4,-6 3,-9 -2,-3 -6,-4 -9,-3 -3,2 -4,6 -3,9z"/>
  <path class="fil7" d="M923 409c3,-2 3,-6 0,-7 -4,-2 -7,2 -6,6 1,2 4,3 6,2z"/>
  <path class="fil9" d="M896 430c3,1 7,0 8,-4 1,-3 0,-7 -4,-8 -3,-1 -7,0 -8,4 -1,3 0,7 4,8z"/>
  <path class="fil7" d="M898 429c2,1 4,0 5,-2 1,-2 0,-4 -2,-5 -2,-1 -5,0 -5,2 -1,2 0,4 2,5z"/>
  <path class="fil9" d="M973 471c-3,-2 -4,-6 -2,-9 2,-3 6,-4 9,-2 3,2 4,6 2,9 -2,3 -6,4 -9,2z"/>
  <path class="fil7" d="M974 469c2,1 4,0 5,-1 1,-2 1,-5 -1,-6 -2,-1 -4,0 -5,1 -1,2 -1,5 1,6l0 0z"/>
  <path class="fil9" d="M982 442c-3,0 -7,-2 -7,-6 0,-3 2,-7 6,-7 3,0 7,2 7,6 0,3 -2,7 -6,7z"/>
  <path class="fil7" d="M978 439c3,2 6,-1 6,-4 0,-2 -2,-4 -4,-4 -4,0 -5,6 -2,8l0 0z"/>
  <path class="fil9" d="M969 414c-2,3 -6,3 -9,0 -3,-2 -3,-6 0,-9 2,-3 6,-3 9,0 3,2 3,6 0,9z"/>
  <path class="fil7" d="M968 411c0,-1 0,-2 -1,-3 -3,-3 -7,-1 -7,3 0,1 0,2 1,3 3,3 7,1 7,-3z"/>
  <path class="fil9" d="M982 445c-4,0 -6,3 -6,6 0,4 3,6 6,6 4,0 6,-3 6,-6 0,-4 -3,-6 -6,-6z"/>
  <path class="fil7" d="M983 454c3,-3 1,-7 -3,-7 -2,0 -4,2 -4,4 0,4 4,6 7,3z"/>
  <path class="fil9" d="M942 401c0,4 -3,6 -7,6 -3,0 -6,-3 -6,-7 0,-3 3,-6 7,-6 3,0 6,3 6,7z"/>
  <path class="fil7" d="M935 406c2,0 4,-2 4,-4 0,-2 -2,-4 -4,-4 -2,0 -4,2 -4,4 0,2 1,3 2,4 0,0 1,0 2,0z"/>
  <path class="fil9" d="M971 417c-3,2 -3,6 -1,9 2,3 6,3 9,1 3,-2 3,-6 1,-9 -2,-3 -6,-3 -9,-1z"/>
  <path class="fil7" d="M977 425c2,-2 2,-5 -1,-7 -1,-1 -3,-1 -4,0 -2,1 -2,4 -1,6 1,2 4,2 6,1z"/>
  <polygon class="fil7" points="904,427 903,428 971,463 972,462 941,446 975,451 976,450 940,445 975,438 975,436 941,444 970,425 970,424 940,443 961,415 960,414 939,441 950,409 949,408 938,442 937,407 935,407 937,441 924,409 923,410 936,443 912,416 911,417 934,443 "/>
  <polygon class="fil7" points="862,583 866,585 941,443 936,441 "/>
  <path class="fil4" d="M870 587c0,0 -52,-39 -59,-55 -7,-17 8,-15 8,-15 0,0 -21,-30 -15,-40 6,-10 17,3 17,3 0,0 -10,-40 -1,-42 16,-4 29,39 29,39 0,0 -1,-18 9,-16 15,4 7,42 7,42 0,0 5,-7 13,0 15,12 -6,84 -6,84z"/>
  <path class="fil3" d="M878 504c-8,-7 -15,-1 -15,-1 0,0 8,-39 -7,-42 -10,-2 -9,16 -9,16 0,0 -13,-43 -29,-39l51 149c2,-9 22,-72 8,-83z"/>
  <path class="fil6" d="M870 586c0,0 -53,0 -64,-9 -11,-9 2,-10 2,-10 0,0 -25,-14 -25,-23 0,-9 9,-7 9,-7 0,0 -18,-16 -14,-23 6,-12 31,11 31,11 0,0 -2,-9 6,-11 12,-3 24,31 24,31 0,0 -6,-15 2,-13 15,3 29,55 29,55z"/>
  <path class="fil3" d="M872 589c0,0 47,-40 53,-57 6,-16 -8,-14 -8,-14 0,0 18,-30 12,-39 -6,-9 -14,-4 -14,-4 0,0 5,-32 -3,-33 -15,-3 -25,39 -25,39 0,0 0,-17 -9,-14 -14,4 -4,41 -4,41 0,0 -5,-14 -13,-7 -13,12 11,87 11,87z"/>
  <path class="fil4" d="M858 499c9,-5 14,2 14,2 0,0 -8,-28 6,-33 9,-3 9,14 9,14 0,0 10,-42 25,-39l-40 145c-3,-9 -24,-83 -14,-89z"/>
  <path class="fil5" d="M877 583c0,0 52,0 59,-1 7,-1 -1,-7 -1,-7 0,0 16,1 19,-3 2,-4 -4,-5 -4,-5 0,0 16,-5 15,-8 -1,-6 -19,-2 -19,-2 0,0 7,-3 4,-6 -4,-4 -21,8 -21,8 0,0 6,-12 3,-14 -7,-3 -54,40 -54,40z"/>
  <path class="fil7" d="M914 641l-86 0c-11,-10 -18,-24 -17,-39 0,-8 2,-14 5,-21l112 1c3,7 5,14 5,22 0,14 -7,28 -17,37z"/>
 </g>
</svg>
