<?xml version="1.0" encoding="UTF-8"?>
<!DOCTYPE svg PUBLIC "-//W3C//DTD SVG 1.1//EN" "http://www.w3.org/Graphics/SVG/1.1/DTD/svg11.dtd">
<!-- Creator: CorelDRAW 2020 (64-Bit) -->
<svg xmlns="http://www.w3.org/2000/svg" xml:space="preserve" width="10.6667in" height="6.66666in" version="1.1" style="shape-rendering:geometricPrecision; text-rendering:geometricPrecision; image-rendering:optimizeQuality; fill-rule:evenodd; clip-rule:evenodd"
viewBox="0 0 1067 667"
 xmlns:xlink="http://www.w3.org/1999/xlink"
 xmlns:xodm="http://www.corel.com/coreldraw/odm/2003">
 <defs>
  <style type="text/css">
   <![CDATA[
    .str0 {stroke:#128CB2;stroke-width:1;stroke-miterlimit:2.61313}
    .fil30 {fill:black;fill-rule:nonzero}
    .fil4 {fill:#1A6EFD;fill-rule:nonzero}
    .fil17 {fill:#1B101C;fill-rule:nonzero}
    .fil8 {fill:#21111D;fill-rule:nonzero}
    .fil35 {fill:#258D8C;fill-rule:nonzero}
    .fil1 {fill:#312DA7;fill-rule:nonzero}
    .fil38 {fill:#33192C;fill-rule:nonzero}
    .fil36 {fill:#3A1F33;fill-rule:nonzero}
    .fil9 {fill:#3AA1C9;fill-rule:nonzero}
    .fil3 {fill:#3F9896;fill-rule:nonzero}
    .fil21 {fill:#472A31;fill-rule:nonzero}
    .fil28 {fill:#49263E;fill-rule:nonzero}
    .fil29 {fill:#4C222E;fill-rule:nonzero}
    .fil23 {fill:#4CB7D8;fill-rule:nonzero}
    .fil43 {fill:#61A3C5;fill-rule:nonzero}
    .fil24 {fill:#683D46;fill-rule:nonzero}
    .fil2 {fill:#7FC6A6;fill-rule:nonzero}
    .fil34 {fill:#AAC9F8;fill-rule:nonzero}
    .fil13 {fill:#B0DEE9;fill-rule:nonzero}
    .fil44 {fill:#B1E2F3;fill-rule:nonzero}
    .fil16 {fill:#B7E4F4;fill-rule:nonzero}
    .fil12 {fill:#B9E7F1;fill-rule:nonzero}
    .fil15 {fill:#D3DFD3;fill-rule:nonzero}
    .fil40 {fill:#D4E0D1;fill-rule:nonzero}
    .fil10 {fill:#D4EEF4;fill-rule:nonzero}
    .fil22 {fill:#D7E4F7;fill-rule:nonzero}
    .fil7 {fill:#DCF4FF;fill-rule:nonzero}
    .fil39 {fill:#DEE9D8;fill-rule:nonzero}
    .fil11 {fill:#DEF8FC;fill-rule:nonzero}
    .fil26 {fill:#E2F2F1;fill-rule:nonzero}
    .fil27 {fill:#F07162;fill-rule:nonzero}
    .fil18 {fill:#F3FFFE;fill-rule:nonzero}
    .fil0 {fill:#F5F6F7;fill-rule:nonzero}
    .fil33 {fill:#F78C63;fill-rule:nonzero}
    .fil5 {fill:#F7AB48;fill-rule:nonzero}
    .fil42 {fill:#F8E6C2;fill-rule:nonzero}
    .fil14 {fill:#F99247;fill-rule:nonzero}
    .fil32 {fill:#F9956E;fill-rule:nonzero}
    .fil25 {fill:#F9B59D;fill-rule:nonzero}
    .fil31 {fill:#FBFDFC;fill-rule:nonzero}
    .fil20 {fill:#FE9F73;fill-rule:nonzero}
    .fil37 {fill:#FEBAC7;fill-rule:nonzero}
    .fil41 {fill:#FEC073;fill-rule:nonzero}
    .fil19 {fill:#FFC33D;fill-rule:nonzero}
    .fil6 {fill:white;fill-rule:nonzero}
   ]]>
  </style>
 </defs>
 <g id="Layer_x0020_1">
  <metadata id="CorelCorpID_0Corel-Layer"/>
  <path class="fil0" d="M251 645l-119 1c0,0 -49,-66 -38,-285 10,-220 118,-333 244,-341 153,-9 167,44 334,62 374,40 345,438 213,563l-634 0z"/>
  <path class="fil1" d="M177 246c0,0 -23,-38 -78,-28 0,0 37,55 78,28z"/>
  <path class="fil2" d="M213 256c0,0 -7,-76 -99,-102 0,0 16,113 99,102z"/>
  <path class="fil3" d="M805 135l-1 0c-2,0 -4,0 -6,0l-1 0 0 -1 1 0c2,0 4,0 6,0l1 0 0 1zm-18 1l0 -1 1 0c2,0 4,-1 6,-1l1 0 0 1 -1 0c-2,0 -4,1 -6,1l-1 0zm29 0l-1 0c-2,0 -4,-1 -6,-1l-1 0 0 -1 1 0c2,0 4,0 6,1l1 0 0 1zm11 3l-1 0c-2,-1 -4,-1 -6,-1l-1 0 0 -1 1 0c2,0 4,1 6,1l1 0 0 1zm-51 1l0 -1 0 0c2,-1 4,-2 5,-2l0 0 0 1 0 0c-2,1 -4,1 -5,2l0 0zm-25 3l-1 0c-2,0 -4,0 -6,0l-1 0 0 -1 1 0c2,0 4,0 6,0l1 0 0 1zm-18 1l0 -1 1 0c2,0 4,-1 6,-1l1 0 0 1 -1 0c-2,0 -4,1 -6,1l-1 0zm29 2l0 0c-2,-1 -3,-1 -5,-2l-1 0 0 -1 1 0c2,0 4,1 6,2l0 0 0 1zm5 0l-1 -1 0 0c2,-1 3,-2 5,-3l0 0 1 1 0 0c-2,1 -3,2 -5,3l0 0zm-44 2l0 -1 0 0c2,-1 4,-2 5,-2l0 0 0 1 -1 0c-2,1 -4,1 -5,2l0 0zm48 5l0 0c-1,-1 -3,-3 -4,-4l0 0 1 -1 0 0c2,1 3,3 4,4l0 0 -1 1zm-58 1l-1 -1 0 0c2,-1 3,-2 5,-3l0 0 1 1 0 0c-2,1 -3,2 -5,3l0 0zm46 0l-1 -1 0 0c1,-1 3,-3 4,-4l0 0 1 1 0 0c-1,1 -3,3 -4,4l0 0zm-54 8l-1 -1 0 0c1,-2 3,-3 4,-4l0 0 1 1 0 0c-1,1 -3,3 -4,4l0 0zm70 1l0 -1c0,-1 0,-1 0,-2 0,-1 -1,-2 -1,-3l0 0 1 0 0 0c0,1 1,2 1,3 0,1 0,1 0,2l0 1 -1 0zm-23 1l-1 0 0 0c1,-2 2,-3 3,-5l0 0 1 1 0 0c-1,2 -2,3 -3,5l0 0zm-54 8l-1 -1 0 0c1,-2 2,-3 3,-5l0 0 1 1 0 0c-1,2 -2,3 -3,5l0 0zm77 3l-1 0 0 -1c0,-2 1,-4 1,-6l0 -1 1 0 0 1c0,2 0,4 -1,6l0 1zm-26 0l-1 0 0 -1c0,-2 0,-4 1,-6l0 -1 1 0 0 1c-1,2 -1,4 -1,6l0 1zm-56 7l-1 0 0 0c1,-2 1,-4 2,-5l0 0 1 0 0 0c-1,2 -2,3 -2,5l0 0zm75 2l-1 -1 0 0c1,-1 3,-3 3,-4l0 0 1 1 0 0c-1,2 -2,3 -4,5l0 0zm-16 1l0 0c-2,-1 -3,-3 -3,-5l0 0 1 0 0 0c1,2 2,3 3,4l0 0 -1 1zm8 2l0 0c-1,0 -2,0 -3,0l-1 0 0 -1 1 0c1,0 2,0 2,0l0 0c1,0 2,0 3,0l1 0 0 1 -1 0c-1,0 -2,0 -3,0zm-70 6l-1 0 0 -1c0,-2 1,-4 2,-6l0 0 1 0 0 0c-1,2 -1,4 -1,6l0 1zm-2 11l-1 0 0 -1c0,-2 1,-4 1,-6l0 -1 1 0 0 1c0,2 -1,4 -1,6l0 1z"/>
  <path class="fil1" d="M845 156l6 -5c0,0 26,1 26,0 0,0 14,-5 14,-5l-16 -3 -28 0 -3 13z"/>
  <polygon class="fil4" points="843,129 892,146 848,143 "/>
  <polygon class="fil4" points="851,151 856,166 892,146 "/>
  <path class="fil2" d="M628 288c-13,14 -35,15 -50,2 -14,-13 -15,-35 -2,-50 13,-14 35,-15 50,-2 14,13 15,35 2,50zm-1 -69c-5,-3 -10,-5 -16,-6l-3 -13 -9 0 -9 0 -2 14c-5,2 -10,4 -15,7l-12 -7 -6 7 -6 7 8 11c-3,5 -5,10 -6,16l-13 3 0 9 0 9 14 2c2,5 4,10 7,15l-7 12 7 6 7 6 11 -8c5,3 10,5 16,6l3 13 9 0 9 0 2 -14c5,-2 10,-4 15,-7l12 7 6 -7 6 -7 -8 -11c3,-5 5,-10 6,-16l13 -3 0 -9 0 -9 -14 -2c-2,-5 -4,-10 -7,-15l7 -12 -7 -6 -7 -6 -11 8z"/>
  <path class="fil5" d="M553 176c-9,8 -23,8 -31,-1 -8,-9 -8,-23 1,-31 9,-8 23,-8 31,1 8,9 8,23 -1,31zm3 -44c-3,-2 -6,-3 -10,-4l-1 -9 -6 0 -6 0 -2 8c-3,1 -7,2 -10,4l-7 -5 -4 4 -4 4 5 7c-2,3 -3,6 -4,10l-9 1 0 6 0 6 8 2c1,3 2,7 4,10l-5 7 4 4 4 4 7 -5c3,2 6,3 10,4l1 9 6 0 6 0 2 -8c3,-1 7,-2 10,-4l7 5 4 -4 4 -4 -5 -7c2,-3 3,-6 4,-10l9 -1 0 -6 0 -6 -8 -2c-1,-3 -2,-7 -4,-10l5 -7 -4 -4 -4 -4 -7 5z"/>
  <path class="fil6" d="M239 124c14,-1 60,-3 93,2 4,1 7,-4 4,-7 -2,-2 -5,-3 -9,-4 0,0 2,-30 -21,-32 -26,-2 -26,27 -26,27 0,0 -12,-11 -20,3 0,0 -15,-8 -22,7 -1,2 1,4 2,4z"/>
  <path class="fil6" d="M929 360c-9,-1 -31,-1 -50,0 -8,1 -15,-6 -14,-13 0,-3 1,-7 4,-11 11,-16 31,-1 31,8 0,0 4,-12 16,-10 12,2 8,20 8,20 0,0 4,-1 7,1 3,2 1,6 -2,6z"/>
  <path class="fil4" d="M213 626l0 -327c0,-16 11,-28 24,-28l544 0c13,0 24,13 24,28l0 327 -592 0z"/>
  <path class="fil7" d="M227 609l0 -296c0,-21 6,-23 13,-23l538 0c7,0 13,6 13,13l0 306 -564 0z"/>
  <path class="fil8" d="M226 570l1 -1 0 -267c0,-7 6,-12 12,-12l0 -1c-8,0 -14,6 -14,13l0 268z"/>
  <path class="fil8" d="M791 609l-1 0 0 -306c0,-7 -6,-12 -13,-12l-538 0 0 -1 538 0c8,0 14,6 14,13l0 306z"/>
  <polygon class="fil1 str0" points="156,645 839,645 839,626 156,626 "/>
  <polygon class="fil6" points="347,155 347,397 166,397 166,195 205,155 "/>
  <polygon class="fil4" points="166,195 205,155 205,195 "/>
  <path class="fil9" d="M222 185l79 0c1,0 2,-1 2,-2 0,-1 -1,-2 -2,-2l-79 0c-1,0 -2,1 -2,2 0,1 1,2 2,2z"/>
  <path class="fil9" d="M212 201l100 0c1,0 2,-1 2,-2 0,-1 -1,-2 -2,-2l-100 0c-1,0 -2,1 -2,2 0,1 1,2 2,2z"/>
  <path class="fil9" d="M185 239l145 0c1,0 2,-1 2,-2 0,-1 -1,-2 -2,-2l-145 0c-1,0 -2,1 -2,2 0,1 1,2 2,2z"/>
  <path class="fil9" d="M185 257l145 0c1,0 2,-1 2,-2 0,-1 -1,-2 -2,-2l-145 0c-1,0 -2,1 -2,2 0,1 1,2 2,2z"/>
  <path class="fil9" d="M185 274l145 0c1,0 2,-1 2,-2 0,-1 -1,-2 -2,-2l-145 0c-1,0 -2,1 -2,2 0,1 1,2 2,2z"/>
  <path class="fil9" d="M185 295l145 0c1,0 2,-1 2,-2 0,-1 -1,-2 -2,-2l-145 0c-1,0 -2,1 -2,2 0,1 1,2 2,2z"/>
  <path class="fil9" d="M185 313l145 0c1,0 2,-1 2,-2 0,-1 -1,-2 -2,-2l-145 0c-1,0 -2,1 -2,2 0,1 1,2 2,2z"/>
  <path class="fil9" d="M185 374l145 0c1,0 2,-1 2,-2 0,-1 -1,-2 -2,-2l-145 0c-1,0 -2,1 -2,2 0,1 1,2 2,2z"/>
  <path class="fil9" d="M185 360l145 0c1,0 2,-1 2,-2 0,-1 -1,-2 -2,-2l-145 0c-1,0 -2,1 -2,2 0,1 1,2 2,2z"/>
  <polygon class="fil6" points="393,569 717,569 717,317 393,317 "/>
  <polygon class="fil10" points="447,344 703,344 703,331 447,331 "/>
  <polygon class="fil10" points="407,409 703,409 703,364 407,364 "/>
  <polygon class="fil11" points="407,555 703,555 703,407 407,407 "/>
  <path class="fil10" d="M440 337c0,4 -3,6 -6,6 -4,0 -6,-3 -6,-6 0,-4 3,-6 6,-6 4,0 6,3 6,6z"/>
  <path class="fil10" d="M420 337c0,4 -3,6 -6,6 -4,0 -6,-3 -6,-6 0,-4 3,-6 6,-6 4,0 6,3 6,6z"/>
  <polygon class="fil6" points="416,379 648,379 648,374 416,374 "/>
  <polygon class="fil6" points="416,393 648,393 648,388 416,388 "/>
  <path class="fil12" d="M693 423l-183 0c-1,0 -2,-1 -2,-2 0,-1 1,-2 2,-2l183 0c1,0 2,1 2,2 0,1 -1,2 -2,2z"/>
  <path class="fil12" d="M693 435l-183 0c-1,0 -2,-1 -2,-2 0,-1 1,-2 2,-2l183 0c1,0 2,1 2,2 0,1 -1,2 -2,2z"/>
  <path class="fil12" d="M693 447l-183 0c-1,0 -2,-1 -2,-2 0,-1 1,-2 2,-2l183 0c1,0 2,1 2,2 0,1 -1,2 -2,2z"/>
  <path class="fil12" d="M693 472l-183 0c-1,0 -2,-1 -2,-2 0,-1 1,-2 2,-2l183 0c1,0 2,1 2,2 0,1 -1,2 -2,2z"/>
  <path class="fil12" d="M693 485l-183 0c-1,0 -2,-1 -2,-2 0,-1 1,-2 2,-2l183 0c1,0 2,1 2,2 0,1 -1,2 -2,2z"/>
  <path class="fil12" d="M693 497l-183 0c-1,0 -2,-1 -2,-2 0,-1 1,-2 2,-2l183 0c1,0 2,1 2,2 0,1 -1,2 -2,2z"/>
  <path class="fil12" d="M693 522l-183 0c-1,0 -2,-1 -2,-2 0,-1 1,-2 2,-2l183 0c1,0 2,1 2,2 0,1 -1,2 -2,2z"/>
  <path class="fil12" d="M693 534l-183 0c-1,0 -2,-1 -2,-2 0,-1 1,-2 2,-2l183 0c1,0 2,1 2,2 0,1 -1,2 -2,2z"/>
  <polygon class="fil10" points="418,488 496,488 496,419 418,419 "/>
  <polygon class="fil10" points="418,534 496,534 496,507 418,507 "/>
  <path class="fil13" d="M489 472l-57 0c4,-6 6,-14 6,-21l18 8 13 -28 20 41z"/>
  <path class="fil13" d="M447 443c-3,0 -6,-3 -6,-6 0,-3 3,-6 6,-6 3,0 6,3 6,6 0,3 -3,6 -6,6z"/>
  <polygon class="fil8" points="296,609 692,609 692,608 296,608 "/>
  <path class="fil1" d="M800 371l11 -8 1 -1 11 -8 96 115c3,3 2,8 -1,11l-27 20c-3,2 -8,2 -10,-2l-79 -127z"/>
  <path class="fil14" d="M800 375l25 -18c2,-1 2,-4 1,-5l-9 -12 -32 23 9 12c1,2 4,2 5,1z"/>
  <path class="fil8" d="M807 371l17 -12c3,-2 4,-6 2,-9l-8 -10 -1 1 8 10c2,2 1,6 -1,8l-17 12 1 1z"/>
  <path class="fil15" d="M805 347l0 -48c0,-16 -11,-28 -24,-28l-89 0c4,-14 13,-27 26,-37 13,-9 27,-14 42,-14 22,0 44,10 58,29 22,31 16,73 -13,97z"/>
  <path class="fil1" d="M791 356l0 -53c0,-7 -6,-13 -14,-13l-89 0c0,-6 1,-12 3,-18l89 0c13,0 24,13 24,28l0 48c-1,1 -2,2 -3,2 -3,2 -7,4 -10,6z"/>
  <path class="fil16" d="M760 363c-15,0 -31,-5 -43,-15l0 -32 -24 0c-3,-9 -5,-18 -5,-27l89 0c7,0 13,5 13,12l0 54c-10,5 -20,7 -30,7z"/>
  <path class="fil17" d="M790 356l0 -54c0,-7 -6,-12 -13,-12l-89 0c0,0 0,-1 0,-1l89 0c8,0 14,6 14,13l0 53c0,0 -1,0 -1,0z"/>
  <path class="fil10" d="M717 348c-5,-4 -9,-8 -13,-13l0 -4 -3 0c-3,-4 -5,-9 -7,-14l24 0 0 32z"/>
  <path class="fil13" d="M703 335c0,-1 -1,-1 -1,-2 -1,-1 -1,-2 -2,-3l3 0 0 4z"/>
  <path class="fil18" d="M712 310c7,1 14,-10 17,-24 2,-15 -1,-27 -8,-28 -7,-1 -14,10 -17,24 -2,15 1,27 8,28z"/>
  <polygon class="fil8" points="919,472 920,471 824,357 823,358 "/>
  <path class="fil8" d="M770 231l0 -1c0,0 -16,-5 -30,2l1 1c14,-6 29,-2 29,-2z"/>
  <path class="fil8" d="M771 240l0 -1c0,0 -16,-5 -30,2l1 1c14,-6 29,-2 29,-2z"/>
  <path class="fil19" d="M827 243c-27,-37 -78,-45 -115,-18 -37,27 -45,78 -18,115 27,37 78,45 115,18 37,-27 45,-78 18,-115zm-25 106c-32,23 -76,16 -99,-16 -23,-32 -16,-76 16,-99 32,-23 76,-16 99,16 23,32 16,76 -16,99z"/>
  <path class="fil8" d="M809 359c37,-27 45,-79 19,-116 -27,-37 -79,-45 -116,-19 -17,13 -29,31 -33,52l1 0c4,-21 15,-39 32,-51 37,-26 88,-18 114,18 26,37 18,88 -18,114 -17,12 -38,18 -58,15l0 1c21,3 42,-3 59,-15z"/>
  <path class="fil20" d="M385 218l5 2 6 3c0,0 9,2 9,1l-1 1c11,1 45,3 50,3 3,0 7,5 9,8l-3 2c0,0 -30,-1 -29,-1 0,0 1,3 2,7 -18,1 -44,1 -49,-6 -4,-6 0,-15 1,-20z"/>
  <polygon class="fil20" points="500,351 478,351 477,330 500,327 "/>
  <path class="fil9" d="M522 358l-46 -6 1 -9c0,0 4,-4 9,-1 0,0 7,6 14,1l16 9c0,0 6,3 6,6z"/>
  <path class="fil21" d="M476 356l47 6c0,0 0,0 1,0l0 -2c0,0 0,0 0,-1l-47 -6 0 3z"/>
  <path class="fil22" d="M505 346c-2,2 -5,7 -8,9l-3 0c2,-2 6,-8 9,-10l2 1z"/>
  <path class="fil22" d="M502 356l-3 0c2,-2 5,-6 7,-9l2 1c-2,2 -5,6 -7,8z"/>
  <path class="fil19" d="M430 276c0,0 -19,0 -33,0 -4,0 -8,0 -11,0 -9,-2 -12,-32 -1,-50 11,-18 48,37 48,37l-4 13z"/>
  <polygon class="fil20" points="465,351 443,351 443,330 465,327 "/>
  <path class="fil23" d="M485 361l-45 -9 2 -9c0,0 4,-4 9,0 0,0 6,7 14,2l15 10c0,0 6,3 5,6z"/>
  <path class="fil24" d="M440 355l46 9c0,0 1,0 1,0l0 -2c0,0 0,0 0,-1l-46 -9 -1 3z"/>
  <path class="fil22" d="M470 347c-2,2 -6,6 -8,9l-3 -1c2,-2 7,-7 9,-10l2 2z"/>
  <path class="fil22" d="M466 357l-3 -1c2,-2 5,-6 8,-8l2 2c-2,2 -5,5 -7,7z"/>
  <path class="fil19" d="M451 236c0,0 47,3 49,9 1,5 5,64 2,89 0,0 -18,1 -27,-1l-2 -61 -14 -2 -33 -39 24 5z"/>
  <path class="fil19" d="M428 235c0,0 37,10 38,16 1,5 5,58 2,82 0,0 -19,1 -28,-1l-2 -57 -8 0 -20 -36 19 -5z"/>
  <path class="fil8" d="M452 334c-9,0 -12,-1 -12,-1l0 0 -2 -58 4 2 0 1 -3 -1 2 56c1,0 5,2 16,1l0 1c-2,0 -3,0 -5,0z"/>
  <path class="fil8" d="M444 322c-1,-4 -1,-38 -1,-39l1 0c0,0 0,36 1,39l-1 0z"/>
  <path class="fil8" d="M478 273c-4,-1 -10,-2 -10,-2l0 -1c0,0 6,0 11,2l0 1z"/>
  <path class="fil8" d="M488 334c-7,0 -12,-1 -12,-1l0 0 -2 -61 3 2 0 1 -2 -1 2 59c1,0 6,1 13,1l0 1c0,0 0,0 -1,0z"/>
  <path class="fil8" d="M479 323c-1,-5 0,-41 0,-43l1 0c0,0 -1,37 0,43l-1 0z"/>
  <path class="fil8" d="M416 276c-8,0 -19,0 -30,-1l0 -1c34,3 57,0 57,0l0 1c0,0 -10,1 -27,1z"/>
  <path class="fil4" d="M427 217c1,0 27,11 27,11l-5 10 -15 -3 -7 -18z"/>
  <path class="fil4" d="M389 170c0,0 -11,0 -17,3 -8,5 -5,30 -5,30 0,0 7,-4 7,-5 0,-1 14,-28 14,-28z"/>
  <path class="fil8" d="M387 226l0 0 8 2c0,0 0,0 0,0 0,0 0,0 0,0l-8 -2c0,0 0,0 0,0 0,0 0,0 0,0z"/>
  <path class="fil25" d="M382 221l5 2 6 3c0,0 9,2 9,1l-1 1c11,1 45,3 50,3 3,0 7,5 9,8l-3 2c0,0 -30,-1 -29,-1 0,0 1,3 2,7 -18,1 -44,1 -49,-6 -4,-6 0,-15 1,-20z"/>
  <path class="fil4" d="M379 172c6,-1 23,-1 23,-1 0,0 2,1 2,0 19,3 21,17 21,17l9 40 10 1c3,6 1,23 1,23l-49 5c0,0 -11,2 -19,-10 -6,-8 -8,-31 -8,-48 0,0 1,-26 11,-27z"/>
  <polygon class="fil1" points="515,203 469,203 452,244 499,244 "/>
  <polygon class="fil1" points="452,244 455,244 471,203 469,203 "/>
  <path class="fil26" d="M485 222c-1,2 0,4 1,4 1,0 3,-1 3,-3 1,-2 0,-4 -1,-4 -1,0 -3,1 -3,3z"/>
  <path class="fil1" d="M437 240l17 0 0 3 -17 0c-1,0 -2,-1 -2,-2 0,-1 1,-2 2,-2z"/>
  <polygon class="fil1" points="442,242 452,242 452,242 442,242 "/>
  <path class="fil8" d="M395 228c0,0 0,0 0,0 0,0 0,0 0,0 0,0 -5,-22 -7,-35 0,0 0,0 0,0 0,0 0,0 0,0 2,14 7,35 7,36 0,0 0,0 0,0z"/>
  <path class="fil8" d="M426 228c0,0 0,0 0,0 0,0 0,0 0,0 0,0 -8,-24 -9,-33 0,0 0,0 0,0 0,0 0,0 0,0 2,8 9,32 9,33 0,0 0,0 0,0z"/>
  <path class="fil8" d="M396 182c0,0 0,0 1,0 0,0 0,0 0,0 0,0 0,0 0,0 -11,-1 -13,-9 -13,-9 0,0 0,0 0,0 0,0 0,0 0,0 0,0 2,8 12,9z"/>
  <path class="fil8" d="M429 222c0,0 0,0 0,0l2 -4 0 0 -7 -31c0,0 -1,-4 -4,-8 -3,-4 -8,-8 -19,-10 0,0 0,0 0,0 0,0 0,0 0,0 10,1 16,6 19,10 3,4 4,7 4,8l0 0 7 30 -2 3c0,0 0,0 0,0l0 0z"/>
  <path class="fil8" d="M440 222c0,0 0,0 0,0 0,0 0,0 0,0l-9 -4c0,0 0,0 0,0 0,0 0,0 0,0l9 4 0 0z"/>
  <path class="fil4" d="M443 228c0,0 3,8 1,23l-12 -6 3 -11 7 -5z"/>
  <path class="fil8" d="M384 228c0,0 0,0 0,0 0,0 44,-1 58,0 0,1 2,6 2,15 0,0 0,0 0,0 0,0 0,0 0,0 1,-10 -2,-15 -2,-15l0 0 0 0c-14,-1 -58,0 -58,0 0,0 0,0 0,0 0,0 0,0 0,0z"/>
  <path class="fil20" d="M404 147l0 13c0,0 0,4 -3,5l1 6c0,2 -1,4 -3,5 -1,0 -2,1 -4,1 -4,0 -7,-3 -7,-5 0,-2 0,-9 0,-9l0 -4 0 -15 16 3z"/>
  <path class="fil27" d="M392 162c0,0 0,7 9,8l-1 -4c0,0 -6,1 -9,-3z"/>
  <path class="fil28" d="M394 155c0,0 0,0 0,0 0,0 0,0 0,0 0,0 2,-3 5,-1 0,0 0,0 0,0 0,0 0,0 0,0 -2,-2 -4,1 -4,1 0,0 0,0 0,0z"/>
  <path class="fil29" d="M388 153l4 1 1 1c0,0 -1,-6 -1,-8 -1,-1 -3,6 -3,6z"/>
  <path class="fil28" d="M401 153c0,0 0,0 0,0 0,0 0,0 0,0 0,0 2,-2 3,-1 0,0 0,0 0,0 0,0 0,0 0,0 -1,-1 -2,1 -2,1 0,0 0,0 0,0z"/>
  <path class="fil30" d="M398 155c0,0 0,1 -1,1 0,0 -1,0 -1,-1 0,0 0,-1 1,-1 0,0 1,0 1,1z"/>
  <path class="fil30" d="M403 155c0,0 0,1 -1,1 0,0 -1,0 -1,-1 0,0 0,-1 1,-1 0,0 1,0 1,1z"/>
  <path class="fil20" d="M393 155c0,2 -1,3 -3,3 -2,0 -3,-1 -3,-3 0,-2 1,-3 3,-3 2,0 3,1 3,3z"/>
  <path class="fil27" d="M389 157c-1,0 -1,0 -1,-1 0,-1 0,-1 0,-1 1,0 1,0 2,0 0,0 0,-1 -1,-1 -1,0 -1,0 -1,0 0,0 0,0 0,0 0,0 0,0 0,0 0,0 1,0 2,0 0,0 1,1 1,1l0 0 0 0c0,0 -1,-1 -2,0 0,0 -1,1 0,1 0,0 1,1 1,1l0 0c0,0 0,0 0,0 0,0 0,0 0,0l0 0z"/>
  <path class="fil27" d="M400 159c0,0 0,0 0,0 0,0 0,0 0,0l2 -1 -1 -4c0,0 0,0 0,0 0,0 0,0 0,0l1 4 -2 1 0 0z"/>
  <path class="fil31" d="M398 161c0,0 4,0 4,0 0,0 0,1 -2,2 -1,0 -2,-1 -2,-1z"/>
  <path class="fil29" d="M388 153c0,0 -1,-6 1,-9 2,-2 13,-7 14,-6 1,1 0,3 0,3 0,0 4,-2 6,2 1,4 -8,6 -14,4 0,0 -4,1 -6,5z"/>
  <path class="fil8" d="M386 255c1,0 1,0 2,1 4,1 6,1 7,1 0,0 0,0 0,0 0,0 0,0 0,0 0,0 -3,0 -6,-1 -3,-1 -8,-3 -13,-9 -6,-7 -8,-30 -8,-47 0,0 0,0 0,0 0,0 0,0 0,0 0,17 2,40 8,47 4,5 8,7 11,9z"/>
  <path class="fil32" d="M483 587c0,0 -6,-5 -6,-5 -4,3 -3,10 -8,13 3,1 5,1 6,1l2 5 0 1c0,1 1,1 2,1 1,0 1,-1 1,-1l0 1c0,1 1,1 2,1 1,0 1,-1 1,-1 0,1 1,1 2,1 1,0 1,-1 1,-1l0 -1c0,1 1,1 2,1 0,0 0,0 0,0l0 0c0,0 0,0 0,0 1,0 1,-1 1,-1 0,-1 -1,-5 -2,-7 -1,-3 -2,-6 -5,-8z"/>
  <path class="fil27" d="M486 603l0 0c0,0 0,0 0,0l-3 -9c0,0 0,0 0,0 0,0 0,0 0,0l3 9c0,0 0,0 0,0z"/>
  <path class="fil27" d="M484 603l0 0c0,0 0,0 0,0l-3 -8c0,0 0,0 0,0 0,0 0,0 0,0l3 8c0,0 0,0 0,0z"/>
  <path class="fil32" d="M471 577c4,3 12,10 14,11 2,2 -8,11 -8,11 0,0 -12,-6 -19,-11l13 -11z"/>
  <path class="fil27" d="M481 603l0 0c0,0 0,0 0,0l-2 -6c0,0 0,0 0,0 0,0 0,0 0,0l2 6c0,0 0,0 0,0z"/>
  <path class="fil8" d="M514 596c0,0 0,0 0,0l5 -4c0,0 0,0 0,0 0,0 0,0 0,0l-5 4c0,0 0,0 0,0 0,0 0,0 0,0z"/>
  <path class="fil1" d="M418 604c0,0 4,-11 44,-9 46,2 77,-6 86,9l-64 24 -66 -24z"/>
  <path class="fil1" d="M490 624c0,0 -37,-22 -49,-25 -13,-3 -22,1 -23,5 -1,4 -3,14 6,20 4,3 46,15 57,18 0,0 10,-4 10,-18z"/>
  <path class="fil8" d="M483 620c0,0 0,0 0,0 0,0 0,0 0,0 -35,-21 -47,-22 -47,-22 0,0 0,0 0,0 0,0 0,0 0,0 0,0 12,1 47,22 0,0 0,0 0,0z"/>
  <path class="fil20" d="M473 646l17 -8 -8 -16 -13 7c0,0 -22,0 -23,1 -1,1 23,19 28,16z"/>
  <path class="fil21" d="M479 643c-5,-5 -7,-13 -8,-16l-2 1c0,0 -22,0 -23,1 -1,1 23,19 28,16l6 -3z"/>
  <path class="fil1" d="M475 624c0,0 37,-22 49,-25 13,-3 22,1 23,5 1,4 3,14 -6,20 -4,3 -49,16 -60,19 0,0 -7,-5 -7,-19z"/>
  <path class="fil8" d="M482 644c0,0 0,0 0,0 0,0 0,0 0,0 -6,-4 -7,-17 -7,-18 3,-1 34,-20 47,-25 0,0 0,0 0,0 0,0 0,0 0,0 -13,5 -47,25 -47,25l0 0 0 0c0,1 0,15 7,19 0,0 0,0 0,0z"/>
  <path class="fil8" d="M422 604c0,0 0,0 0,0 0,0 1,-2 5,-2 0,0 0,0 0,0 0,0 0,0 0,0 -5,0 -6,2 -6,2 0,0 0,0 0,0 0,0 0,0 0,0z"/>
  <path class="fil8" d="M424 605c0,0 0,0 0,0 0,0 2,-1 6,-1 0,0 0,0 0,0 0,0 0,0 0,0 -5,-1 -6,1 -6,1 0,0 0,0 0,0 0,0 0,0 0,0z"/>
  <path class="fil28" d="M491 509c0,0 -2,17 -5,17 -3,0 2,20 9,10 2,-3 2,-26 -3,-31 -6,-5 -1,3 -1,3z"/>
  <path class="fil20" d="M492 504c0,0 2,16 0,19 0,0 -1,2 -4,2l0 10 -12 -1 0 -27c0,0 3,-7 3,-6 0,0 12,5 12,5z"/>
  <path class="fil27" d="M489 518c0,0 0,0 0,0 0,0 0,0 0,0 0,0 1,-1 1,-1 -1,-1 -1,-1 -1,-2 0,-1 0,-2 0,-3 0,0 0,0 0,0 0,0 0,0 0,0 0,0 -1,1 0,2 0,1 1,1 1,2l0 0 0 0c0,0 0,1 -1,1l0 0z"/>
  <path class="fil27" d="M489 528l0 -3c0,0 -6,0 -9,-2 0,0 5,4 9,6z"/>
  <path class="fil28" d="M481 513c0,0 0,0 0,0 0,0 0,0 0,0 0,0 3,-3 5,-1 0,0 0,0 0,0 0,0 0,0 0,0 -2,-2 -4,1 -5,1 0,0 0,0 0,0z"/>
  <path class="fil28" d="M490 512c0,0 0,0 0,0 0,0 0,0 0,0 0,0 2,-2 3,-1 0,0 0,0 0,0 0,0 0,0 0,0 -1,-1 -3,1 -3,1 0,0 0,0 0,0z"/>
  <path class="fil30" d="M485 514c0,0 0,1 -1,1 0,0 -1,0 -1,-1 0,0 0,-1 1,-1 0,0 1,0 1,1z"/>
  <path class="fil30" d="M492 514c0,0 0,1 -1,1 0,0 -1,0 -1,-1 0,0 0,-1 1,-1 0,0 1,0 1,1z"/>
  <path class="fil31" d="M486 519c0,0 4,0 4,0 0,0 -1,2 -2,1 -2,0 -2,-2 -2,-2z"/>
  <path class="fil20" d="M487 505l-3 -4c0,0 4,3 4,3 0,0 -1,1 -1,1z"/>
  <path class="fil28" d="M479 503c0,0 1,6 15,7 0,0 3,-9 -7,-12 -11,-3 -12,5 -11,5 0,0 3,0 3,0z"/>
  <path class="fil28" d="M481 506c0,0 -3,4 -4,7 0,0 5,26 -5,24l-2 0c-9,0 -3,-19 -3,-29 0,-6 8,-13 13,-9 5,4 1,7 1,7z"/>
  <path class="fil20" d="M480 516c0,2 -1,3 -3,3 -2,0 -3,-1 -3,-3 0,-2 1,-3 3,-3 2,0 3,1 3,3z"/>
  <path class="fil27" d="M476 518c-1,0 -1,0 -1,-1 0,-1 0,-1 1,-2 1,0 1,0 2,0 0,0 0,-1 -1,-1 -1,0 -1,0 -1,0 0,0 0,0 0,0 0,0 0,0 0,0 0,0 1,0 2,0 0,0 1,1 1,1l0 0 0 0c0,0 -1,-1 -2,0 0,0 -1,1 0,1 0,0 0,1 1,1 0,0 0,0 0,0 0,0 0,0 0,0l0 0z"/>
  <path class="fil28" d="M493 502c0,0 5,5 4,21l-3 -15 0 -6z"/>
  <path class="fil2" d="M489 562l-7 -30 -19 0c-2,0 -5,1 -5,1 -8,4 -29,27 -28,42 1,13 20,11 39,14l4 -18 -7 -2 22 -8z"/>
  <path class="fil2" d="M483 566l0 -34 19 0c2,0 5,1 5,1 8,4 31,28 30,43 -1,13 -23,13 -34,16l-6 -21 1 -1 -15 -4z"/>
  <path class="fil2" d="M514 571l0 37c0,0 -33,6 -63,-2 -1,0 1,-31 1,-31 0,0 0,-6 3,-8 3,-2 28,-13 29,-13 1,0 30,16 30,16z"/>
  <path class="fil8" d="M482 543c0,0 0,0 0,0 0,0 0,0 0,0 -11,-1 -15,-8 -15,-8 0,0 0,0 0,0 0,0 0,0 0,0 0,0 4,8 15,9l0 0z"/>
  <path class="fil20" d="M494 532l-24 0c0,0 4,8 13,8 4,0 8,-1 11,-8z"/>
  <path class="fil33" d="M479 581c-2,-2 0,-4 0,-4 -1,-2 0,-3 0,-3 0,0 6,2 10,3 2,0 3,-1 3,-1l0 0c0,-2 0,-4 0,-4 0,0 1,-1 2,0 1,1 3,5 3,5l5 -3 4 15c0,0 -13,2 -15,2 -2,0 -9,-1 -11,-3 -2,-2 -2,-3 -2,-3 -2,-2 0,-4 0,-4z"/>
  <path class="fil4" d="M493 571l0 5c0,0 -1,2 -4,2l-2 -1 2 -7 4 1z"/>
  <path class="fil27" d="M484 580c0,0 0,0 0,0 0,0 0,0 0,0 -2,-1 -4,-2 -4,-2 0,0 0,0 0,0 0,0 0,0 0,0 0,0 3,2 4,2l0 0z"/>
  <path class="fil27" d="M484 583c0,0 0,0 0,0 0,0 0,0 0,0 -2,0 -4,-2 -4,-2 0,0 0,0 0,0 0,0 0,0 0,0 0,0 2,1 4,2l0 0z"/>
  <path class="fil27" d="M483 586c0,0 0,0 0,0 0,0 0,0 0,0 -2,0 -4,-2 -4,-2 0,0 0,0 0,0 0,0 0,0 0,0 0,0 2,1 4,2l0 0z"/>
  <path class="fil23" d="M499 574l7 -2c0,0 4,10 4,11 0,0 -2,9 -2,9 0,0 -3,-2 -3,-2l-7 -16z"/>
  <path class="fil8" d="M512 568l4 -1c0,0 0,0 0,0 0,0 0,0 -1,0l-3 0 -7 -11c0,0 0,0 -1,0 0,0 0,0 0,1l7 11z"/>
  <path class="fil8" d="M511 542c0,0 0,0 0,0 -3,-4 -5,-4 -5,-4l0 0c0,0 0,0 0,0 0,0 0,0 0,0l0 0c0,0 3,0 6,4 0,0 0,0 0,1 0,0 0,0 0,0z"/>
  <path class="fil8" d="M510 546c0,0 0,0 0,0 -2,-4 -4,-5 -4,-5 0,0 0,0 0,0 0,0 0,0 0,0 0,0 3,0 5,5 0,0 0,0 0,0 0,0 0,0 0,0z"/>
  <path class="fil27" d="M490 575c0,0 0,0 0,0 0,0 0,0 0,0 2,-1 4,-3 4,-3 0,0 0,0 0,0 0,0 0,0 0,0 0,0 -2,2 -4,3l0 0z"/>
  <path class="fil27" d="M490 578c0,0 0,0 0,0 0,0 0,0 0,0 2,-1 4,-2 4,-2 0,0 0,0 0,0 0,0 0,0 0,0 0,0 -2,2 -4,2l0 0z"/>
  <path class="fil27" d="M492 581c0,0 0,0 0,0 0,0 0,0 0,0 2,-1 3,-2 3,-2 0,0 0,0 0,0 0,0 0,0 0,0 0,0 -2,2 -3,2l0 0z"/>
  <path class="fil8" d="M459 567l-4 0c0,0 0,0 0,0 0,0 0,0 0,0l3 0 5 -12c0,0 0,0 1,0 0,0 0,0 0,1l-5 12z"/>
  <path class="fil23" d="M474 572l-4 18c0,0 -8,-6 -8,-7 0,-1 2,-9 3,-9 0,0 9,-2 9,-2z"/>
  <path class="fil8" d="M471 590l0 0c0,0 -9,-1 -20,-5 0,0 0,0 0,-1 0,0 0,0 1,0 9,4 17,5 19,5l3 -17 -15 -5c0,0 0,0 0,-1 0,0 0,0 1,0l16 5 -4 19z"/>
  <path class="fil8" d="M501 590l0 0c0,0 9,-1 20,-5 0,0 0,0 0,-1 0,0 0,0 -1,0 -9,4 -17,5 -19,5l-3 -17 15 -5c0,0 0,0 0,-1 0,0 0,0 -1,0l-16 5 4 19z"/>
  <path class="fil28" d="M450 610l70 0c1,0 2,-1 2,-2l0 -39c0,-1 -1,-2 -2,-2l-70 0c-1,0 -2,1 -2,2l0 39c0,1 1,2 2,2z"/>
  <path class="fil6" d="M481 584c0,-2 1,-3 3,-3 2,0 3,1 3,3 0,2 -1,3 -3,3 -2,0 -3,-1 -3,-3z"/>
  <path class="fil6" d="M873 606c0,0 -8,21 -1,36l-157 1 -14 -1 -13 -8 0 -12 4 -10 12 -6 170 0z"/>
  <path class="fil1" d="M707 645l169 0c1,0 2,-1 2,-2 0,-1 -1,-2 -2,-2l-169 0c-10,0 -19,-8 -19,-17 0,-9 8,-17 19,-17l169 0c1,0 2,-1 2,-2 0,-1 -1,-2 -2,-2l-169 0c-12,0 -23,10 -23,21 0,12 10,21 23,21z"/>
  <path class="fil34" d="M870 624l-83 0c0,0 0,0 0,0 0,0 0,0 0,0l83 0c0,0 0,0 0,0 0,0 0,0 0,0z"/>
  <path class="fil34" d="M775 624l-81 0c0,0 0,0 0,0 0,0 0,0 0,0l81 0c0,0 0,0 0,0 0,0 0,0 0,0z"/>
  <path class="fil34" d="M738 632l-41 0c0,0 0,0 0,0 0,0 0,0 0,0l41 0c0,0 0,0 0,0 0,0 0,0 0,0z"/>
  <path class="fil34" d="M870 632l-126 0c0,0 0,0 0,0 0,0 0,0 0,0l126 0c0,0 0,0 0,0 0,0 0,0 0,0z"/>
  <path class="fil6" d="M715 566c0,0 8,19 1,33l146 1 13 -1 12 -7 0 -11 -3 -9 -11 -6 -158 0z"/>
  <path class="fil35" d="M869 603l-157 0c-1,0 -2,-1 -2,-2 0,-1 1,-2 2,-2l157 0c9,0 17,-7 17,-16 0,-9 -8,-16 -17,-16l-157 0c-1,0 -2,-1 -2,-2 0,-1 1,-2 2,-2l157 0c12,0 21,9 21,20 0,11 -9,20 -21,20z"/>
  <path class="fil34" d="M795 583l-77 0c0,0 0,0 0,0 0,0 0,0 0,0l77 0c0,0 0,0 0,0 0,0 0,0 0,0z"/>
  <path class="fil34" d="M881 583l-75 0c0,0 0,0 0,0 0,0 0,0 0,0l75 0c0,0 0,0 0,0 0,0 0,0 0,0z"/>
  <path class="fil34" d="M879 591l-38 0c0,0 0,0 0,0 0,0 0,0 0,0l38 0c0,0 0,0 0,0 0,0 0,0 0,0z"/>
  <path class="fil34" d="M879 576l-161 0c0,0 0,0 0,0 0,0 0,0 0,0l161 0c0,0 0,0 0,0 0,0 0,0 0,0z"/>
  <path class="fil8" d="M877 646l-169 0c-13,0 -23,-10 -23,-22 0,-12 10,-22 23,-22l169 0c1,0 2,1 2,2 0,1 -1,2 -2,2 0,0 0,0 0,0 0,0 0,0 0,0 1,0 2,-1 2,-2 0,-1 -1,-2 -2,-2l-169 0c-12,0 -22,9 -22,21 0,11 10,21 22,21l169 0c1,0 2,-1 2,-2 0,-1 -1,-2 -2,-2 0,0 0,0 0,0 0,0 0,0 0,0 1,0 2,1 2,2 0,1 -1,2 -2,2z"/>
  <path class="fil8" d="M869 603l-157 0c-1,0 -2,-1 -2,-2 0,-1 1,-2 2,-2 0,0 0,0 0,0 0,0 0,0 0,0 -1,0 -1,1 -1,1 0,1 1,1 1,1l157 0c11,0 20,-9 20,-19 0,-11 -9,-19 -20,-19l-157 0c-1,0 -1,1 -1,1 0,1 1,1 1,1 0,0 0,0 0,0 0,0 0,0 0,0 -1,0 -2,-1 -2,-2 0,-1 1,-2 2,-2l157 0c12,0 21,9 21,20 0,11 -10,20 -21,20z"/>
  <path class="fil2" d="M850 616c0,0 5,13 2,23l-4 -7c0,0 -3,4 -5,7 0,0 -3,-22 -10,-23l17 0z"/>
  <path class="fil23" d="M810 590c0,0 -5,13 -2,23l4 -7c0,0 3,4 5,7 0,0 3,-22 10,-23l-17 0z"/>
  <path class="fil34" d="M870 616l-173 0c0,0 0,0 0,0 0,0 0,0 0,0l173 0c0,0 0,0 0,0 0,0 0,0 0,0z"/>
  <path class="fil34" d="M834 591l-117 0c0,0 0,0 0,0 0,0 0,0 0,0l117 0c0,0 0,0 0,0 0,0 0,0 0,0z"/>
  <polygon class="fil20" points="743,628 750,632 760,623 760,621 758,605 740,608 "/>
  <path class="fil36" d="M756 632l-25 3c0,0 0,0 -1,0 -2,0 -2,-2 -2,-2l11 -9 0 -1c0,-2 2,-3 4,-2l5 2c0,0 11,0 12,-3l1 8c0,0 1,2 -5,3z"/>
  <polygon class="fil20" points="711,629 719,633 728,624 728,622 726,606 708,609 "/>
  <path class="fil36" d="M724 633l-25 3c0,0 0,0 -1,0 -2,0 -2,-2 -2,-2l11 -9 0 -1c0,-2 2,-3 4,-2l5 2c0,0 11,0 12,-3l1 8c0,0 1,2 -5,3z"/>
  <path class="fil28" d="M771 563c0,0 31,1 39,0 9,-2 11,-28 1,-45 -10,-16 -43,34 -43,34l3 11z"/>
  <path class="fil36" d="M752 524c0,0 -43,7 -44,12 -1,5 -5,58 -2,80 0,0 16,1 24,-1l2 -51 13 0 29 -40 -22 1z"/>
  <path class="fil28" d="M773 527c0,0 -33,9 -34,14 -1,5 -5,52 -2,74 0,0 17,1 25,-1l2 -52 8 0 18 -32 -17 -4z"/>
  <path class="fil37" d="M794 464c0,0 15,0 18,2 3,2 19,28 22,39 0,0 -9,8 -20,8l-3 -5 2 10 -30 9c-10,3 -21,3 -31,-1l-3 -1c0,0 0,-50 9,-55 8,-5 25,-7 35,-6z"/>
  <path class="fil20" d="M775 439l0 14c0,0 0,5 4,5l-1 6c0,2 1,5 3,5 1,0 2,1 4,1 5,0 7,-4 8,-5 0,-2 -1,-10 -1,-10l0 -4 -1 -16 -17 4z"/>
  <path class="fil8" d="M787 446c0,0 0,0 0,0 0,0 0,0 0,0 0,0 -3,-3 -5,-1 0,0 0,0 0,0 0,0 0,0 0,0 2,-2 5,1 5,1 0,0 0,0 0,0z"/>
  <path class="fil8" d="M778 445c0,0 0,0 0,0 0,0 0,0 0,0 0,0 -2,-2 -3,-1 0,0 0,0 0,0 0,0 0,0 0,0 1,-1 3,1 3,1 0,0 0,0 0,0z"/>
  <path class="fil30" d="M783 447c0,0 0,1 1,1 0,0 1,0 1,-1 0,0 0,-1 -1,-1 0,0 -1,0 -1,1z"/>
  <path class="fil30" d="M776 446c0,0 0,1 1,1 0,0 1,0 1,-1 0,0 0,-1 -1,-1 0,0 -1,0 -1,1z"/>
  <path class="fil8" d="M792 436l-3 5c0,0 -10,4 -15,-1 -5,-5 -4,-7 -2,-9 1,-1 4,-3 9,-2 2,1 4,-2 7,-1 3,2 6,4 6,5 0,1 -1,2 -1,2z"/>
  <path class="fil8" d="M791 434c0,0 5,0 6,4 1,4 0,7 0,8 0,1 1,10 -5,10l-2 -15 2 -6 0 -1z"/>
  <path class="fil20" d="M788 447c0,2 2,4 4,4 2,0 4,-2 4,-4 0,-2 -2,-4 -4,-4 -2,0 -4,2 -4,4z"/>
  <path class="fil27" d="M791 449c1,0 1,-1 1,-1 0,-1 0,-1 -1,-2 -1,0 -2,0 -2,0 0,0 0,-1 1,-1 1,0 2,0 2,0 0,0 0,0 0,0 0,0 0,0 0,0 0,0 -1,0 -2,0 0,0 -1,1 -1,1l0 0 0 0c0,0 1,-1 2,0 1,0 1,1 0,1 0,0 -1,1 -1,1l0 0c0,0 0,0 0,0 0,0 0,0 0,0l0 0z"/>
  <path class="fil27" d="M789 455c0,0 0,8 -10,9l1 -5c0,0 6,1 10,-4z"/>
  <path class="fil8" d="M811 508c12,-2 20,-9 20,-9l0 0c0,0 -7,7 -19,9l0 1z"/>
  <path class="fil8" d="M751 616c8,0 10,-1 11,-1l0 0 2 -52 -3 2 0 1 2 -1 -2 51c-1,0 -5,1 -14,1l0 1c2,0 3,0 4,0z"/>
  <path class="fil8" d="M759 605c1,-3 1,-34 1,-36l-1 0c0,0 0,32 -1,35l1 0z"/>
  <path class="fil8" d="M719 616c7,0 11,-1 11,-1l2 -52 -2 2 0 0 1 -1 -2 50c-1,0 -5,1 -11,1l0 1c0,0 0,0 1,0z"/>
  <path class="fil8" d="M727 606c1,-5 0,-37 0,-39l-1 0c0,0 1,34 0,39l1 0z"/>
  <path class="fil20" d="M757 529l3 -5c2,-3 5,-7 8,-7 5,-1 36,-2 46,-3l-1 -1c0,0 8,-1 8,-1l5 -2 5 -2c1,5 5,13 1,19 -7,10 -57,5 -62,4l-4 4 -1 1c0,1 -1,1 -2,0 -1,0 -1,-1 0,-2l0 1c0,1 -1,1 -2,0 -1,0 -1,-1 0,-2 0,1 -1,1 -2,0 -1,0 -1,-1 0,-2l0 -1c0,1 -1,1 -2,0l0 0 0 0 0 0 0 0 0 0c0,0 0,0 0,0 -1,-1 0,-2 0,-2z"/>
  <path class="fil8" d="M814 513l0 0c10,0 20,-8 20,-8l0 0 -6 -14 -1 0 6 14c-1,1 -10,7 -20,8l-3 -6 -1 0 3 6z"/>
  <path class="fil27" d="M818 519c0,0 0,0 0,0 0,0 0,0 0,0l-4 -5c0,0 0,0 0,0 0,0 0,0 0,0l4 5c0,0 0,0 0,0z"/>
  <path class="fil27" d="M759 532c0,0 0,0 0,0l5 -7c0,0 0,0 0,0 0,0 0,0 0,0l-5 7c0,0 0,0 0,0l0 0z"/>
  <path class="fil27" d="M761 534c0,0 0,0 0,0l5 -7c0,0 0,0 0,0 0,0 0,0 0,0l-5 7c0,0 0,0 0,0l0 0z"/>
  <path class="fil27" d="M763 535c0,0 0,0 0,0l4 -6c0,0 0,0 0,0 0,0 0,0 0,0l-4 6c0,0 0,0 0,0l0 0z"/>
  <path class="fil8" d="M784 564c-15,0 -24,-1 -24,-1l0 -1c0,0 21,2 51,0l0 1c-10,1 -19,1 -27,1z"/>
  <polygon class="fil8" points="763,509 762,509 763,484 764,484 "/>
  <polygon class="fil8" points="813,513 802,486 802,486 814,513 "/>
  <polygon class="fil8" points="812,514 810,506 811,506 812,514 "/>
  <path class="fil27" d="M781 451c0,0 0,0 0,0 0,0 0,0 0,0l-2 -1 1 -5c0,0 0,0 0,0 0,0 0,0 0,0l-1 5 2 1 0 0z"/>
  <path class="fil31" d="M782 453c0,0 -4,0 -4,0 0,0 0,2 2,2 1,0 2,-2 2,-2z"/>
  <polygon class="fil19" points="699,491 747,491 763,533 716,533 "/>
  <polygon class="fil19" points="763,533 761,533 744,491 747,491 "/>
  <path class="fil26" d="M730 510c1,2 0,4 -1,4 -1,0 -3,-1 -3,-3 -1,-2 0,-4 1,-4 1,0 3,1 3,3z"/>
  <path class="fil19" d="M779 529l-18 0 0 3 18 0c1,0 2,-1 2,-2 0,-1 -1,-2 -2,-2z"/>
  <polygon class="fil19" points="763,531 774,531 774,530 763,530 "/>
  <polygon class="fil28" points="756,540 777,540 777,533 756,533 "/>
  <polygon class="fil8" points="117,647 898,647 898,645 117,645 "/>
  <polygon class="fil20" points="243,639 224,639 224,621 243,619 "/>
  <path class="fil38" d="M263 642l-39 0 0 -8c0,0 3,-4 7,-2 0,0 6,5 12,-1l14 6c0,0 5,2 5,4z"/>
  <path class="fil21" d="M224 645l40 0c0,0 1,0 1,-1l0 -1c0,0 0,-1 -1,-1l-40 0 0 3z"/>
  <path class="fil22" d="M248 633c-1,2 -4,6 -6,9l-3 0c1,-2 5,-7 6,-10l2 1z"/>
  <path class="fil22" d="M246 642l-3 0c1,-2 4,-6 5,-8l2 1c-1,2 -3,5 -5,7z"/>
  <polygon class="fil20" points="210,639 191,639 191,621 210,619 "/>
  <path class="fil38" d="M213 483c1,19 3,92 9,139 0,3 3,6 6,6 4,0 8,0 14,-2 3,-1 4,-3 4,-6l2 -145c0,0 0,-1 0,-1l0 -1c-1,-4 -5,-6 -8,-5l-23 9c-2,1 -4,3 -4,6z"/>
  <path class="fil28" d="M187 479c0,0 -2,90 3,145 0,3 2,5 5,5 4,0 9,0 16,-1 2,-1 4,-2 4,-5l11 -129 7 -36 -45 21z"/>
  <polygon class="fil8" points="190,628 190,628 "/>
  <path class="fil19" d="M180 450c0,4 3,57 9,61 6,4 63,0 64,-5 1,-5 -6,-61 -6,-61l-66 5z"/>
  <path class="fil19" d="M244 425c1,0 31,14 31,14l-7 12 -17 -4 -7 -22z"/>
  <path class="fil19" d="M201 368c0,0 -13,-1 -20,2 -10,5 -7,36 -7,36 0,0 8,-4 9,-6 1,-1 18,-32 18,-32z"/>
  <path class="fil19" d="M188 370c8,-1 27,-1 27,-1 0,0 3,1 2,0 22,5 24,21 24,21l9 47 12 1c4,7 0,27 0,27l-58 5c0,0 -12,2 -23,-12 -7,-9 -8,-37 -7,-57 0,0 2,-30 14,-31z"/>
  <path class="fil8" d="M205 437c0,0 0,0 0,0 0,0 0,0 0,0 0,0 -5,-26 -7,-42 0,0 0,0 0,0 0,0 0,0 0,0 2,16 7,42 7,42 0,0 0,0 0,0z"/>
  <path class="fil8" d="M241 438c0,0 0,0 0,0 0,0 0,0 0,0 0,0 -2,-30 -3,-40 0,0 0,0 0,0 0,0 0,0 0,0 2,10 3,39 3,40 0,0 0,0 0,0z"/>
  <path class="fil8" d="M245 431c0,0 0,0 0,0l3 -4 0 0 -7 -36c0,0 -1,-5 -4,-9 -3,-4 -10,-10 -22,-12 0,0 0,0 0,0 0,0 0,0 0,0 12,2 18,8 21,12 3,5 4,9 4,9l0 0 7 36 -2 4c0,0 0,0 0,0l0 0z"/>
  <path class="fil8" d="M196 434l0 0 10 3c0,0 0,0 0,0 0,0 0,0 0,0l-10 -3c0,0 0,0 0,0 0,0 0,0 0,0z"/>
  <path class="fil8" d="M258 432c0,0 0,0 0,0 0,0 0,0 0,0l-10 -5c0,0 0,0 0,0 0,0 0,0 0,0l10 5 0 0z"/>
  <path class="fil2" d="M301 466l-34 -2c-2,0 -3,-2 -3,-3l7 -50c0,-1 1,-2 2,-2l34 2c2,0 3,2 3,3l-7 50c0,1 -1,2 -2,2z"/>
  <path class="fil20" d="M284 456c0,-1 -1,-2 -2,-2l-6 0c0,0 0,0 0,0 0,0 0,-1 0,-1l9 -1c1,0 2,-1 1,-2l0 0c0,-1 -1,-2 -2,-2l-9 1c0,0 0,0 0,0l0 0c0,0 0,0 0,-1l9 -3c1,0 2,-1 1,-2 0,-1 -1,-2 -2,-1l-9 3c0,0 0,0 -1,0l0 0c0,0 0,0 0,-1l8 -3c1,0 1,-1 1,-2 0,-1 -1,-1 -2,-1 0,0 -13,5 -15,5l4 -2c3,3 0,-1 -3,-1 -3,-1 -9,6 -9,6 0,1 0,2 1,3 2,10 2,12 3,14l11 -3c3,-1 6,-1 9,-1l1 0c1,0 2,-1 2,-2z"/>
  <path class="fil6" d="M292 429c0,2 -1,3 -3,3 -2,0 -3,-1 -3,-3 0,-2 1,-3 3,-3 2,0 3,1 3,3z"/>
  <polygon class="fil2" points="268,438 267,442 271,440 271,438 "/>
  <path class="fil8" d="M307 411l-34 -2c-1,0 -2,1 -3,2l-4 31 1 0 4 -31c0,-1 1,-1 2,-1l34 2c0,0 0,0 0,0 0,0 0,0 0,0z"/>
  <path class="fil19" d="M262 439c0,0 3,9 0,27l-3 -13 -6 -8 9 -6z"/>
  <path class="fil8" d="M193 437c0,0 0,0 0,0 1,0 52,0 69,2 0,1 2,7 1,17 0,0 0,0 0,0 0,0 0,0 0,0 1,-12 -1,-18 -1,-18l0 0 0 0c-17,-2 -68,-2 -69,-2 0,0 0,0 0,0 0,0 0,0 0,0z"/>
  <path class="fil8" d="M214 469c21,0 47,-3 48,-3 0,0 0,0 0,0 0,0 0,0 0,0 -1,0 -57,6 -72,0 -14,-6 -15,-37 -15,-37 0,0 0,0 0,0 0,0 0,0 0,0 0,1 1,32 16,38 5,2 14,2 24,2z"/>
  <path class="fil8" d="M202 336c0,0 -5,3 -2,13l2 -1 -1 -5 1 -6z"/>
  <path class="fil20" d="M219 342l0 15c0,0 0,5 -4,6l1 7c0,2 -1,5 -4,6 -1,0 -3,1 -4,1 -5,0 -8,-4 -8,-6 0,-2 1,-11 1,-11l0 -4 1 -17 18 5z"/>
  <path class="fil8" d="M207 349c0,0 0,0 0,0 0,0 0,0 0,0 0,0 3,-3 5,-1 0,0 0,0 0,0 0,0 0,0 0,0 -2,-2 -5,1 -5,1 0,0 0,0 0,0z"/>
  <path class="fil8" d="M216 348c0,0 0,0 0,0 0,0 0,0 0,0 0,0 2,-2 3,-1 0,0 0,0 0,0 0,0 0,0 0,0 -1,-1 -3,1 -3,1 0,0 0,0 0,0z"/>
  <path class="fil30" d="M211 350c0,0 0,1 -1,1 0,0 -1,0 -1,-1 0,0 0,-1 1,-1 0,0 1,0 1,1z"/>
  <path class="fil30" d="M218 350c0,0 0,1 -1,1 0,0 -1,0 -1,-1 0,0 0,-1 1,-1 0,0 1,0 1,1z"/>
  <path class="fil20" d="M204 351c0,2 -2,4 -4,4 -2,0 -4,-2 -4,-4 0,-2 2,-4 4,-4 2,0 4,2 4,4z"/>
  <path class="fil27" d="M200 353c-1,0 -1,-1 -1,-1 0,-1 0,-1 1,-2 1,-1 2,0 2,0 0,0 0,-1 -1,-1 -1,0 -2,0 -2,0 0,0 0,0 0,0 0,0 0,0 0,0 0,0 1,0 2,0 0,0 1,1 1,1l0 0 0 0c0,0 -1,-1 -2,0 -1,0 -1,1 0,1 0,0 1,1 1,1l0 0c0,0 0,0 0,0 0,0 0,0 0,0l0 0z"/>
  <path class="fil8" d="M220 355c0,0 1,10 -5,10 -9,1 -10,-5 -11,-9l0 -9 0 -3c1,1 1,2 1,3 0,2 1,8 1,8 1,0 12,-1 14,0z"/>
  <path class="fil27" d="M213 355c0,0 0,0 0,0 0,0 0,0 0,0l2 -1 -1 -5c0,0 0,0 0,0 0,0 0,0 0,0l1 5 -2 1 0 0z"/>
  <path class="fil31" d="M212 357c0,0 4,0 4,0 0,0 -1,2 -2,2 -1,0 -2,-2 -2,-2z"/>
  <path class="fil8" d="M204 344l-2 -2 -2 5c0,0 2,0 2,3 0,2 -1,6 3,12 4,6 0,-8 0,-9 0,0 -1,-9 -1,-9z"/>
  <path class="fil8" d="M202 336c2,-2 9,-3 14,0l0 0c6,3 4,8 4,8l0 0c0,0 0,0 0,0 0,0 0,0 -1,-1l-2 -2c-1,-1 -3,-1 -5,-1 -2,0 -4,0 -6,0 0,1 -1,4 0,9 1,8 -3,-2 -4,-5 0,1 0,1 -1,2 0,0 -3,-7 1,-11z"/>
  <path class="fil20" d="M219 346c0,0 0,-3 0,-4 0,-1 -7,-3 -11,-2 -4,1 3,5 4,5 0,0 7,1 7,1z"/>
  <polygon class="fil20" points="206,341 203,338 206,343 "/>
  <path class="fil8" d="M206 335c0,0 1,-7 -3,-6 -4,2 -5,5 -1,7 4,2 4,-1 4,-1z"/>
  <path class="fil19" d="M192 384l7 -12 12 4 5 -5c0,0 1,5 1,5 0,0 -6,6 -6,6 -1,0 -19,2 -19,2z"/>
  <path class="fil8" d="M193 513c0,0 0,0 0,0 0,0 0,0 0,0 -6,0 -7,-5 -8,-14 0,-1 0,-3 -1,-5 -2,-11 -3,-38 -3,-38 0,0 0,0 0,0l0 0c0,0 0,0 0,0 0,0 1,27 3,38 0,2 1,3 1,5 1,8 2,14 9,15l0 0z"/>
  <path class="fil4" d="M215 365l1 4c0,0 -3,5 -5,6 -4,-3 -11,-7 -11,-7l0 -5c-8,-1 -16,4 -14,6 2,2 12,3 15,4 3,1 10,3 10,3 2,-1 7,-7 7,-7l5 1c0,-5 -7,-6 -7,-6z"/>
  <path class="fil28" d="M230 642l-39 0 0 -8c0,0 3,-4 7,-2 0,0 6,5 12,-1l14 6c0,0 5,2 5,4z"/>
  <path class="fil24" d="M191 645l40 0c0,0 1,0 1,-1l0 -1c0,0 0,-1 -1,-1l-40 0 0 3z"/>
  <path class="fil22" d="M215 633c-1,2 -4,6 -6,9l-3 0c1,-2 5,-7 6,-10l2 1z"/>
  <path class="fil22" d="M213 642l-3 0c1,-2 4,-6 5,-8l2 1c-1,2 -3,5 -5,7z"/>
  <path class="fil30" d="M211 377c0,0 0,0 0,0l9 -9c0,0 0,0 0,0 0,0 0,0 0,0l-9 9c0,0 0,0 0,0 0,0 0,0 0,0z"/>
  <path class="fil19" d="M438 451c0,-23 -19,-42 -42,-42 -23,0 -42,19 -42,42 0,12 5,22 12,30l0 0c0,0 13,14 17,29 0,0 7,3 13,3 6,0 13,-3 13,-3 4,-15 17,-29 17,-29l0 0c8,-8 12,-18 12,-30z"/>
  <path class="fil23" d="M382 506l0 11c0,5 3,9 8,11 0,3 3,6 7,6 3,0 6,-2 7,-6 4,-2 8,-6 8,-11l0 -11 -28 0z"/>
  <path class="fil39" d="M410 506l0 0c2,-7 6,-13 10,-17l0 0c-3,5 -7,11 -10,17z"/>
  <path class="fil40" d="M420 488l0 0c3,-4 6,-7 6,-8 0,0 -3,3 -6,8z"/>
  <path class="fil40" d="M426 481c0,0 0,0 0,0 0,0 0,0 0,0zm0 0c0,0 0,0 0,0 0,0 0,0 0,0zm0 0c0,0 0,0 0,0 0,0 0,0 0,0zm0 0c0,0 0,0 0,0 0,0 0,0 0,0zm0 0c0,0 0,0 0,0 0,0 0,0 0,0zm0 0l0 0 0 0zm0 0c0,0 0,0 0,0 0,0 0,0 0,0zm0 0c0,0 0,0 0,0 0,0 0,0 0,0zm0 0l0 0 0 0z"/>
  <path class="fil40" d="M438 451c0,0 0,0 0,0 0,0 0,0 0,0zm0 0c0,0 0,0 0,0 0,0 0,0 0,0zm0 0c0,0 0,0 0,0 0,0 0,0 0,0zm0 0c0,0 0,0 0,0 0,0 0,0 0,0zm0 0c0,0 0,0 0,0 0,0 0,0 0,0zm0 0c0,0 0,0 0,0 0,0 0,0 0,0zm0 0c0,0 0,0 0,0 0,0 0,0 0,0zm0 0c0,0 0,0 0,0 0,0 0,0 0,0zm0 0c0,0 0,0 0,0 0,0 0,0 0,0zm0 0c0,0 0,0 0,0 0,0 0,0 0,0zm0 0c0,0 0,0 0,0 0,0 0,0 0,0zm0 0c0,0 0,0 0,0 0,0 0,0 0,0zm0 0c0,0 0,0 0,0 0,0 0,0 0,0zm0 0c0,0 0,0 0,0 0,0 0,0 0,0zm0 0l0 0 0 0zm0 0l0 0 0 0zm0 0l0 0c0,0 0,0 0,0zm0 0l0 0z"/>
  <path class="fil41" d="M410 506l-28 0c0,-1 0,-1 -1,-2l0 0c-3,-7 -7,-13 -10,-17 28,-8 48,-28 60,-59 0,0 0,0 0,0l0 0c4,6 6,13 7,21l0 0c0,0 0,0 0,0l0 0c0,0 0,0 0,0l0 0c0,0 0,0 0,0l0 0c0,0 0,0 0,0 0,0 0,0 0,0 0,0 0,0 0,0 0,0 0,0 0,0 0,0 0,0 0,0 0,0 0,0 0,0 0,0 0,0 0,0 0,0 0,0 0,0 0,0 0,0 0,0 0,0 0,0 0,0 0,0 0,0 0,0 0,0 0,0 0,0 0,0 0,0 0,0 0,0 0,0 0,0 0,0 0,0 0,0 0,0 0,0 0,0 0,0 0,0 0,0 0,0 0,0 0,0 0,0 0,0 0,0 0,0 0,0 0,0 0,0 0,0 0,0 0,0 0,0 0,0 0,0 0,0 0,0 0,0 0,0 0,0 0,0 0,0 0,0 0,0 0,0 0,0 0,0 0,0 0,0 0,0 0,0 0,0 0,0 0,0 0,0 0,0 0,0 0,0 0,8 -2,15 -6,21 -2,3 -4,6 -6,8l0 0 0 0 0 0 0 0c0,0 0,0 0,0 0,0 0,0 0,0 0,0 0,0 0,0 0,0 0,0 0,0l0 0 0 0c0,0 0,0 0,0l0 0c0,0 0,0 0,0 0,0 0,0 0,0 0,0 0,0 0,0l0 0c0,0 0,0 0,0 0,0 0,0 0,0 0,0 0,0 0,0l0 0c0,0 -3,3 -6,8 -3,5 -7,11 -10,17z"/>
  <path class="fil14" d="M402 446c-1,3 -1,8 0,9 0,1 1,1 1,1 1,0 3,-3 2,-5 0,-2 -1,-4 -3,-5zm-14 0c-2,1 -3,3 -3,5 0,3 1,5 2,5 0,0 0,0 1,-1 1,-2 1,-6 0,-9zm14 60l-1 0c0,0 4,-15 7,-30 5,-26 2,-31 0,-32 -2,-1 -4,-1 -5,1 0,0 0,0 0,0 3,2 4,4 4,6 0,3 -1,6 -3,7 -1,0 -2,0 -2,-1 -1,-2 -2,-7 0,-11 -1,-1 -3,-1 -5,-1l-1 0c-2,0 -4,0 -5,1 2,3 1,9 0,11 -1,1 -2,1 -2,1 -2,-1 -3,-4 -3,-7 0,-1 1,-4 4,-6 0,0 0,0 0,0 -1,-1 -3,-2 -5,-1 -2,1 -5,6 0,32 3,15 7,29 7,30l-1 0c0,0 -4,-15 -7,-30 -4,-21 -4,-32 1,-34 3,-2 5,0 6,1 0,0 0,0 0,1 1,-1 3,-1 6,-1l1 0c2,0 4,0 6,1 0,0 0,0 0,-1 1,-1 3,-2 6,-1 4,2 5,13 1,34 -3,15 -7,30 -7,30z"/>
  <path class="fil8" d="M381 506c0,-1 0,-1 -1,-2l0 0c-5,-12 -15,-23 -15,-23l0 0c-8,-8 -12,-19 -12,-30 0,-24 19,-43 43,-43 14,0 28,7 36,19l-1 0c-8,-12 -21,-19 -35,-19 -23,0 -42,19 -42,42 0,11 4,22 12,30l0 0 0 0c2,2 10,12 15,23l0 0c0,1 0,1 1,2l-1 0z"/>
  <path class="fil8" d="M366 431l-1 0c0,0 3,-11 14,-14l0 1c-10,4 -13,14 -13,14z"/>
  <path class="fil8" d="M368 435l-1 0c0,0 3,-11 14,-14l0 1c-10,4 -13,14 -13,14z"/>
  <path class="fil8" d="M397 530l-3 0c-7,0 -13,-6 -13,-13l0 -11 29 0 0 1 -28 0 0 11c0,7 6,12 12,12l3 0c3,0 6,-1 9,-4l0 0c-2,2 -6,4 -9,4z"/>
  <path class="fil8" d="M396 535c-6,0 -7,-6 -7,-6l1 0c0,0 1,6 7,5l0 1c0,0 0,0 0,0z"/>
  <path class="fil8" d="M425 475l0 -1c6,-4 6,-11 6,-11l1 0c0,0 -1,7 -7,12z"/>
  <path class="fil8" d="M424 472l0 -1c4,-3 5,-8 5,-8l1 0c0,0 -1,5 -5,9z"/>
  <path class="fil8" d="M380 512l0 -1c0,0 24,0 32,-3l0 1c-8,3 -31,3 -32,3z"/>
  <path class="fil8" d="M380 517l0 -1c0,0 26,-1 31,-3l0 1c-5,3 -30,3 -31,3z"/>
  <path class="fil8" d="M382 522l0 -1c0,0 23,0 30,-3l0 1c-6,3 -29,4 -30,4z"/>
  <path class="fil19" d="M343 444l0 0 -15 -1c-1,0 -1,-1 -1,-1 0,-1 1,-1 1,-1l15 1c1,0 1,1 1,1 0,0 0,1 -1,1z"/>
  <path class="fil19" d="M350 420c0,0 0,0 -1,0l-12 -9c0,0 -1,-1 0,-1 0,0 1,-1 1,0l12 9c0,0 1,1 0,1 0,0 0,0 -1,0z"/>
  <path class="fil19" d="M373 403c0,0 -1,0 -1,-1l-6 -14c0,0 0,-1 1,-1 0,0 1,0 1,1l6 14c0,0 0,1 -1,1 0,0 0,0 0,0z"/>
  <path class="fil19" d="M448 447c0,0 -1,0 -1,-1 0,-1 0,-1 1,-1l15 -1c1,0 1,0 1,1 0,1 0,1 -1,1l-15 1 0 0z"/>
  <path class="fil19" d="M441 423c0,0 -1,0 -1,0 0,0 0,-1 0,-1l13 -8c0,0 1,0 1,0 0,0 0,1 0,1l-13 8c0,0 0,0 -1,0z"/>
  <path class="fil19" d="M422 403c0,0 0,0 0,0 0,0 -1,-1 0,-1l6 -14c0,0 1,-1 1,0 0,0 1,1 0,1l-6 14c0,0 -1,1 -1,1z"/>
  <path class="fil19" d="M397 396l0 0c-1,0 -1,0 -1,-1l0 -15c0,-1 0,-1 1,-1l0 0c1,0 1,0 1,1l0 15c0,1 0,1 -1,1z"/>
  <path class="fil42" d="M421 432c-2,0 -5,-1 -8,-3 -5,-3 -8,-7 -6,-10 1,-1 2,-1 3,-1 2,0 5,1 8,3 5,3 8,7 6,10 -1,1 -2,1 -3,1z"/>
  <path class="fil6" d="M411 135l72 0c2,0 3,-1 3,-3l0 -42c0,-2 -1,-3 -3,-3l-72 0c-2,0 -3,1 -3,3l0 42c0,2 1,3 3,3z"/>
  <path class="fil43" d="M415 95l65 0c0,0 1,0 1,-1 0,0 0,-1 -1,-1l-65 0c0,0 -1,0 -1,1 0,0 0,1 1,1z"/>
  <path class="fil43" d="M415 105l65 0c0,0 1,0 1,-1 0,0 0,-1 -1,-1l-65 0c0,0 -1,0 -1,1 0,0 0,1 1,1z"/>
  <path class="fil43" d="M438 114l42 0c0,0 1,0 1,-1 0,0 0,-1 -1,-1l-42 0c0,0 -1,0 -1,1 0,0 0,1 1,1z"/>
  <path class="fil43" d="M415 114l17 0c0,0 1,0 1,-1 0,0 0,-1 -1,-1l-17 0c0,0 -1,0 -1,1 0,0 0,1 1,1z"/>
  <path class="fil43" d="M454 123l27 0c0,0 1,0 1,-1 0,0 0,-1 -1,-1l-27 0c0,0 -1,0 -1,1 0,0 0,1 1,1z"/>
  <path class="fil43" d="M415 123l33 0c0,0 1,0 1,-1 0,0 0,-1 -1,-1l-33 0c0,0 -1,0 -1,1 0,0 0,1 1,1z"/>
  <path class="fil6" d="M432 133c0,0 -13,17 -13,16 0,0 1,-18 1,-18l11 1z"/>
  <polygon class="fil8" points="275,627 402,627 402,626 275,626 "/>
  <path class="fil44" d="M323 583l-7 0 -7 0 -1 -10c-4,-1 -8,-3 -12,-5l-9 6 -5 -5 -5 -5 6 -8c-2,-4 -4,-8 -4,-12l-10 -2 0 -7 0 -7 10 -1c1,-4 3,-8 5,-12l-6 -9 5 -5 5 -5 8 6c4,-2 8,-4 12,-4l2 -10 7 0 7 0 1 10c4,1 8,3 12,5l9 -6 5 5 5 5 -6 8c2,4 4,8 4,12l10 2 0 7 0 7 -10 1c-1,4 -3,8 -5,12l6 9 -5 5 -5 5 -8 -6c-4,2 -8,4 -12,4l-2 10zm-5 -76c-6,0 -13,2 -18,7 -11,10 -12,27 -2,38 5,6 13,9 20,9 6,0 13,-2 18,-7 11,-10 12,-27 2,-38 -5,-6 -13,-9 -20,-9z"/>
 </g>
</svg>
